<svg xmlns="http://www.w3.org/2000/svg" viewBox="0 0 24 24"><g transform="translate(-0.0000,2.6749) scale(0.264696) translate(-1404.51,-625.541)"><path d="M1437.04503,631.632c-0.45211,0.1556 -1.44441,1.09505 -6.79342,6.42057c-6.82571,6.79342 -6.82571,6.79342 -6.82571,8.05875c0,1.25945 0.00881,1.2712 6.767,8.00297c3.41432,3.39965 6.39122,6.27966 6.61727,6.39709c0.29064,0.15266 0.66936,0.21725 1.29175,0.21725c0.75743,0.00294 0.96,-0.04404 1.44441,-0.32881c0.65175,-0.38165 1.20074,-1.08331 1.38863,-1.77028c0.15853,-0.59597 0.07046,-1.55891 -0.19376,-2.08148c-0.10862,-0.21725 -1.79083,-1.9934 -3.73726,-3.94864l-3.53469,-3.55231l20.19531,-0.00587c16.56373,-0.00294 20.27457,-0.03229 20.63568,-0.16147c0.64881,-0.23193 1.21542,-0.70753 1.58239,-1.33285c0.2789,-0.47266 0.32587,-0.68404 0.32587,-1.4356c0,-0.74569 -0.04991,-0.96294 -0.31707,-1.42092c-0.38752,-0.65468 -0.99523,-1.13909 -1.70863,-1.3534c-0.44624,-0.13505 -3.94277,-0.16147 -20.62393,-0.16147h-20.08962l3.53469,-3.55231c1.94643,-1.9523 3.63451,-3.73726 3.75488,-3.96332c0.15266,-0.29064 0.21725,-0.66642 0.21725,-1.29175c0.00294,-0.74863 -0.04404,-0.96294 -0.31413,-1.42092c-0.74863,-1.2712 -2.20478,-1.79964 -3.61689,-1.31523M1460.61943,660.96936c-0.65175,0.2378 -1.23303,0.72808 -1.5912,1.33578c-0.27009,0.45798 -0.31707,0.6723 -0.31413,1.42092c0,0.62532 0.06459,1.0011 0.21725,1.29175c0.12037,0.22606 1.80845,2.01102 3.75488,3.96332l3.53469,3.55231h-20.08962c-16.68116,0 -20.17769,0.02642 -20.62393,0.16147c-0.7134,0.21431 -1.32111,0.69872 -1.70863,1.3534c-0.26716,0.45798 -0.31707,0.67523 -0.31707,1.42092c0,0.75156 0.04697,0.96294 0.32587,1.4356c0.36697,0.62532 0.93358,1.10092 1.58239,1.33285c0.3611,0.12917 4.07194,0.15853 20.63568,0.16147l20.19531,0.00587l-3.53469,3.55231c-1.94643,1.9523 -3.62864,3.73139 -3.73726,3.94864c-0.6723,1.33285 -0.13211,3.07084 1.19487,3.85176c0.48441,0.28477 0.68698,0.33174 1.44441,0.32881c0.62239,0 1.0011,-0.06459 1.29175,-0.21725c0.22606,-0.11743 3.20295,-2.99744 6.61727,-6.39709c6.75819,-6.73177 6.767,-6.74351 6.767,-8.00297c0,-1.26533 0,-1.26533 -6.82571,-8.05875c-5.64846,-5.62204 -6.32076,-6.25617 -6.84333,-6.42938c-0.69285,-0.22899 -1.37689,-0.23193 -1.97579,-0.01174"/></g></svg>