<svg xmlns="http://www.w3.org/2000/svg" viewBox="0 0 24 24"><g transform="translate(-0.0000,2.6749) scale(0.264696) translate(-1404.51,-625.541)"><path d="M1427.82371,637.41986c-3.28515,0.55486 -5.98314,2.95047 -7.00186,6.21507l-0.27596,0.88074v16.26428v16.26428l0.27596,0.88074c0.90422,2.89763 3.109,5.1024 6.00663,6.00663l0.88074,0.27596h22.13586h22.13586l0.88074,-0.27596c2.89763,-0.90422 5.1024,-3.109 6.00663,-6.00663l0.27596,-0.88074v-16.26428v-16.26428l-0.27596,-0.88074c-0.89542,-2.8712 -3.09432,-5.08479 -5.94498,-5.98608l-0.94239,-0.29651l-21.78357,-0.01761c-11.98096,-0.00881 -22.05073,0.02936 -22.37366,0.08514M1471.30571,643.34428c0.81909,0.24367 1.60294,1.02753 1.84661,1.84661c0.1556,0.52257 0.17908,2.51304 0.17908,15.59199c0,12.36262 -0.02936,15.08409 -0.16147,15.5274c-0.21431,0.7134 -0.69872,1.32111 -1.3534,1.70863l-0.54019,0.31707h-21.43127h-21.43127l-0.54019,-0.31707c-0.62532,-0.36697 -1.10092,-0.94532 -1.34459,-1.6323c-0.26129,-0.74863 -0.25541,-30.30617 0.00881,-31.19572c0.23193,-0.78973 1.03046,-1.60588 1.7967,-1.84074c0.85432,-0.26129 42.0875,-0.27009 42.97117,-0.00587M1434.27071,655.07571c-0.6723,0.21138 -1.28881,0.71046 -1.66459,1.34753c-0.26716,0.45798 -0.31707,0.67523 -0.31707,1.42092c0,0.75156 0.04697,0.96294 0.32587,1.4356c0.36697,0.62532 0.93358,1.10092 1.58239,1.33285c0.6312,0.22606 7.17801,0.22606 7.8092,0c0.64881,-0.23193 1.21542,-0.70753 1.58239,-1.33285c0.2789,-0.47266 0.32587,-0.68404 0.32587,-1.4356c0,-0.74569 -0.04991,-0.96294 -0.31707,-1.42092c-0.38752,-0.65468 -0.99523,-1.13909 -1.70863,-1.3534c-0.73688,-0.22312 -6.90792,-0.21725 -7.61838,0.00587M1451.88546,655.07571c-0.6723,0.21138 -1.28881,0.71046 -1.66459,1.34753c-0.26716,0.45798 -0.31707,0.67523 -0.31707,1.42092c0,0.75156 0.04697,0.96294 0.32587,1.4356c0.36697,0.62532 0.93358,1.10092 1.58239,1.33285c0.64294,0.22899 13.03785,0.22899 13.68079,0c0.64881,-0.23193 1.21542,-0.70753 1.58239,-1.33285c0.2789,-0.47266 0.32587,-0.68404 0.32587,-1.4356c0,-0.74569 -0.04991,-0.96294 -0.31707,-1.42092c-0.38752,-0.65468 -0.99523,-1.13909 -1.70863,-1.3534c-0.7545,-0.22606 -12.76188,-0.22312 -13.48996,0.00587M1434.27071,666.81887c-0.6723,0.21138 -1.28881,0.71046 -1.66459,1.34753c-0.26716,0.45798 -0.31707,0.67523 -0.31707,1.42092c0,0.75156 0.04697,0.96294 0.32587,1.4356c0.36697,0.62532 0.93358,1.10092 1.58239,1.33285c0.64294,0.22899 13.03785,0.22899 13.68079,0c0.64881,-0.23193 1.21542,-0.70753 1.58239,-1.33285c0.2789,-0.47266 0.32587,-0.68404 0.32587,-1.4356c0,-0.74569 -0.04991,-0.96294 -0.31707,-1.42092c-0.38752,-0.65468 -0.99523,-1.13909 -1.70863,-1.3534c-0.7545,-0.22606 -12.76188,-0.22312 -13.48996,0.00587M1457.75704,666.81887c-0.6723,0.21138 -1.28881,0.71046 -1.66459,1.34753c-0.26716,0.45798 -0.31707,0.67523 -0.31707,1.42092c0,0.75156 0.04697,0.96294 0.32587,1.4356c0.36697,0.62532 0.93358,1.10092 1.58239,1.33285c0.6312,0.22606 7.17801,0.22606 7.8092,0c0.64881,-0.23193 1.21542,-0.70753 1.58239,-1.33285c0.2789,-0.47266 0.32587,-0.68404 0.32587,-1.4356c0,-0.74569 -0.04991,-0.96294 -0.31707,-1.42092c-0.38752,-0.65468 -0.99523,-1.13909 -1.70863,-1.3534c-0.73688,-0.22312 -6.90792,-0.21725 -7.61838,0.00587"/></g></svg>