<svg xmlns="http://www.w3.org/2000/svg" viewBox="0 0 24 24"><g transform="translate(-0.0000,2.6749) scale(0.264696) translate(-1404.51,-625.541)"><path d="M1472.27593,641.90726c-0.46092,0.1556 -2.48661,2.13432 -15.88263,15.51859l-15.35125,15.33657l-6.54975,-6.53214c-6.30608,-6.29434 -6.5703,-6.54094 -7.18388,-6.72003c-0.78092,-0.22899 -1.10973,-0.23486 -1.79964,-0.02642c-0.7134,0.21431 -1.32111,0.69872 -1.70863,1.3534c-0.26716,0.45798 -0.31707,0.67523 -0.31707,1.42092c0,0.74569 0.04697,0.96294 0.31413,1.40918c0.39633,0.66349 15.38648,15.63309 15.95015,15.92667c0.29064,0.15266 0.66936,0.21725 1.29175,0.21725c0.74863,0.00294 0.96,-0.04404 1.40918,-0.31119c0.66936,-0.39927 33.24783,-32.99829 33.54141,-33.5649c0.15266,-0.29064 0.21725,-0.66936 0.21725,-1.29175c0.00294,-0.74863 -0.04404,-0.96294 -0.31413,-1.42092c-0.74863,-1.2712 -2.20184,-1.79964 -3.61689,-1.31523"/></g></svg>