<svg xmlns="http://www.w3.org/2000/svg" viewBox="0 0 24 24"><g transform="translate(-0.0000,2.6749) scale(0.264696) translate(-1404.51,-625.541)"><path d="M1448.7882,649.22156c-0.45505,0.1556 -1.77322,1.42386 -9.66756,9.29765c-5.2169,5.20516 -9.27416,9.34169 -9.45325,9.64407c-0.26716,0.44624 -0.31413,0.66349 -0.31413,1.40918c0,0.7545 0.04697,0.96 0.33174,1.44441c0.38165,0.65175 1.08331,1.20074 1.77028,1.38863c0.59303,0.15853 1.55597,0.07046 2.08148,-0.19376c0.21725,-0.10862 3.978,-3.77249 8.35233,-8.14095l7.95599,-7.94131l7.95599,7.94131c4.37433,4.36846 8.13508,8.03232 8.35233,8.14095c1.33578,0.6723 3.07084,0.13211 3.85176,-1.19487c0.28477,-0.48441 0.33174,-0.68991 0.33174,-1.44441c0,-0.74569 -0.04697,-0.96294 -0.31413,-1.40918c-0.17908,-0.30239 -4.23341,-4.43892 -9.45325,-9.64407c-8.3259,-8.30242 -9.19196,-9.13031 -9.71747,-9.30646c-0.70753,-0.23193 -1.36514,-0.23193 -2.06386,0.00881"/></g></svg>