<svg xmlns="http://www.w3.org/2000/svg" viewBox="0 0 24 24"><g transform="translate(-0.0000,2.6749) scale(0.264696) translate(-1404.51,-625.541)"><path d="M1431.26012,649.22896c-0.65175,0.2378 -1.23303,0.72808 -1.5912,1.33578c-0.27009,0.45798 -0.31707,0.6723 -0.31413,1.42092c0,0.62239 0.06459,1.0011 0.21725,1.29175c0.29358,0.56367 18.19897,18.48961 18.86246,18.88594c0.44918,0.26716 0.66055,0.31413 1.40918,0.31119c0.62239,0 1.0011,-0.06459 1.29175,-0.21725c0.56367,-0.29358 18.48961,-18.19897 18.88594,-18.86246c0.26716,-0.44624 0.31413,-0.66349 0.31413,-1.40918c0,-0.74569 -0.04991,-0.96294 -0.31707,-1.42092c-0.74569,-1.26826 -2.15487,-1.79083 -3.56699,-1.32404c-0.52551,0.17615 -1.3123,0.92477 -8.59306,8.18792l-8.01471,7.99709l-8.01471,-7.99709c-7.28076,-7.26315 -8.06755,-8.01177 -8.59306,-8.18792c-0.69285,-0.22899 -1.37689,-0.23193 -1.97579,-0.01174"/></g></svg>