<svg xmlns="http://www.w3.org/2000/svg" viewBox="0 0 24 24"><g transform="translate(-0.0000,2.6749) scale(0.264696) translate(-1404.51,-625.541)"><path d="M1438.64504,631.53459c-4.33029,0.41101 -8.87783,2.29285 -12.38904,5.12002c-5.23158,4.2158 -8.43159,10.65986 -8.65765,17.42979c-0.22312,6.75232 2.31047,12.99968 7.17507,17.68521c1.0334,0.99523 1.34166,1.22129 1.85248,1.37395c0.76331,0.22606 0.96294,0.22606 1.72918,0c1.55891,-0.46385 2.41616,-2.05505 1.95817,-3.63451c-0.17615,-0.60477 -0.33174,-0.81321 -1.4356,-1.92588c-1.60294,-1.60881 -2.58056,-2.91524 -3.43488,-4.59158c-0.81909,-1.60294 -1.30936,-3.02093 -1.67634,-4.83525c-0.37285,-1.84661 -0.37285,-4.87635 0.00294,-6.62608c0.6723,-3.14717 2.05505,-5.97433 4.03084,-8.24077c2.50423,-2.86827 6.31195,-5.03782 10.08151,-5.73947c1.72037,-0.32 4.81763,-0.28771 6.57617,0.06752c5.15231,1.04514 9.60884,4.31561 12.05142,8.8426c0.4756,0.88074 0.93945,1.96698 1.509,3.53763c0.25541,0.70165 0.76624,1.30056 1.40037,1.63817c0.45798,0.24367 0.6723,0.25835 4.41543,0.32881c4.10424,0.07633 4.32736,0.10275 5.87452,0.6811c1.84661,0.69285 4.12479,2.5923 5.07892,4.23928c2.46313,4.25103 1.77322,9.45031 -1.69102,12.7472c-0.41101,0.3934 -0.9923,0.8778 -1.28881,1.08037c-1.09505,0.74863 -1.55891,1.54129 -1.55891,2.67157c0,1.90533 2.01395,3.35267 3.81359,2.74203c1.28,-0.4345 4.10717,-3.00919 5.31965,-4.84699c1.189,-1.7967 2.00808,-3.79011 2.50129,-6.07122c0.29651,-1.37982 0.29651,-4.57983 -0.00294,-5.97433c-1.10973,-5.21103 -4.16002,-9.19783 -8.82792,-11.53766c-2.22239,-1.1156 -4.10717,-1.50606 -7.65948,-1.58533c-2.53652,-0.05578 -2.60992,-0.06459 -2.68331,-0.30826c-0.14679,-0.49908 -1.3534,-2.79487 -1.96698,-3.74313c-1.70569,-2.63634 -4.34203,-5.21103 -7.2426,-7.07819c-1.26239,-0.81321 -3.72258,-1.96111 -5.22571,-2.44258c-3.00919,-0.96294 -6.37654,-1.3123 -9.62939,-1.00404M1448.96434,660.92773c-0.6723,0.21138 -1.28881,0.71046 -1.66459,1.34753l-0.31707,0.54019l-0.03229,8.62242l-0.03229,8.62242l-3.60809,-3.5846c-3.17359,-3.15304 -3.67855,-3.60809 -4.18644,-3.77836c-1.40918,-0.47266 -2.8213,0.05284 -3.56699,1.32111c-0.27009,0.45798 -0.31707,0.6723 -0.31413,1.42092c0,0.62239 0.06459,1.0011 0.21725,1.29175c0.11743,0.22606 2.99744,3.20295 6.39709,6.61727c6.73177,6.75819 6.74351,6.767 8.00297,6.767c1.25945,0 1.2712,-0.00881 8.00297,-6.767c3.39965,-3.41432 6.27966,-6.39122 6.39709,-6.61727c0.15266,-0.29064 0.21725,-0.66936 0.21725,-1.29175c0.00294,-0.74863 -0.04404,-0.96294 -0.31413,-1.42092c-0.74569,-1.26826 -2.15781,-1.79377 -3.56699,-1.32111c-0.50789,0.17028 -1.01285,0.62532 -4.18644,3.77836l-3.60809,3.5846l-0.03229,-8.62242l-0.03229,-8.62242l-0.31707,-0.54019c-0.71633,-1.21835 -2.11964,-1.76441 -3.45543,-1.34753"/></g></svg>