<svg xmlns="http://www.w3.org/2000/svg" viewBox="0 0 24 24"><g transform="translate(-0.0000,2.6749) scale(0.264696) translate(-1404.51,-625.541)"><path d="M1447.73278,628.52547c-0.22606,0.02642 -0.96588,0.10569 -1.64404,0.17615c-5.54277,0.58716 -10.94756,2.75964 -15.73584,6.31782c-1.7879,1.32991 -4.92039,4.4624 -6.26498,6.25911c-7.33361,9.82609 -8.58719,22.50284 -3.31451,33.50618c1.60294,3.34093 3.4613,5.93323 6.28553,8.75453c2.8213,2.82423 5.4136,4.68259 8.75453,6.28553c11.00041,5.27268 23.68596,4.01323 33.51793,-3.32625c1.7879,-1.33285 4.92919,-4.47415 6.26204,-6.26204c8.73104,-11.69913 8.73104,-27.27056 0,-38.96969c-1.33285,-1.78496 -4.47121,-4.92332 -6.25323,-6.24736c-4.68259,-3.48185 -9.61472,-5.50461 -15.31602,-6.27966c-1.24184,-0.17028 -5.42828,-0.31119 -6.2914,-0.21431M1453.72179,634.62605c7.52443,1.13615 14.10354,5.3725 18.31934,11.79894c0.88954,1.35927 2.18129,3.98974 2.73616,5.578c1.01578,2.91524 1.42386,5.41653 1.42386,8.74866c0,4.38314 -0.7545,7.69471 -2.6334,11.56702c-2.06973,4.26864 -5.19341,7.82975 -9.25655,10.54536c-2.31634,1.5501 -6.02131,3.1002 -8.86315,3.71378c-7.75636,1.67047 -15.93841,-0.26129 -22.12999,-5.21984c-4.44185,-3.55818 -7.77397,-8.77802 -9.10976,-14.26501c-0.54606,-2.24001 -0.71633,-3.73433 -0.71633,-6.34131c0,-4.38314 0.7545,-7.69471 2.6334,-11.56702c3.08552,-6.36773 8.68113,-11.2705 15.38354,-13.48702c2.06973,-0.68404 3.73433,-1.02166 6.40002,-1.29762c0.94532,-0.09688 4.61213,0.04404 5.81287,0.22606M1453.54564,648.1072c-4.52112,1.51193 -8.51967,2.88295 -8.88664,3.04735c-1.68514,0.7545 -3.39671,2.37212 -4.18937,3.95745c-0.62532,1.24478 -6.00663,17.41511 -6.00663,18.04337c0,1.61469 1.36514,2.97983 2.97983,2.97983c0.53725,0 16.25841,-5.18167 17.6441,-5.81287c1.86423,-0.85138 3.47891,-2.46313 4.32736,-4.32148c0.63413,-1.39156 5.8158,-17.11566 5.8158,-17.65291c0,-1.57358 -1.17432,-2.80955 -2.79487,-2.93873c-0.62532,-0.05284 -1.1978,0.1233 -8.88958,2.69799M1457.59703,653.03052c0,0.24073 -3.57873,10.65986 -3.76368,10.95931c-0.14092,0.22899 -0.45505,0.54899 -0.69285,0.70753c-0.38165,0.25248 -10.91527,3.85763 -11.00628,3.76662c-0.09101,-0.09101 3.51414,-10.62463 3.76662,-11.00628c0.15853,-0.2378 0.47853,-0.55193 0.70753,-0.69285c0.23193,-0.14385 2.75671,-1.04514 5.61617,-2.00221c5.02314,-1.68514 5.3725,-1.7967 5.3725,-1.73212"/></g></svg>