<svg xmlns="http://www.w3.org/2000/svg" viewBox="0 0 24 24"><g transform="translate(-0.0000,2.6749) scale(0.264696) translate(-1404.51,-625.541)"><path d="M1424.88792,628.61248c-1.88478,0.32 -3.24111,1.04221 -4.70607,2.50423c-1.17432,1.17432 -1.76147,2.10496 -2.26349,3.57286l-0.30826,0.90129v16.38171v16.38171l0.30826,0.90129c0.50202,1.4679 1.08918,2.39854 2.26349,3.57286c1.189,1.18606 2.14606,1.79083 3.55524,2.23707c1.05395,0.33468 2.71267,0.4756 3.39671,0.29064c0.68698,-0.18789 1.38863,-0.73688 1.77028,-1.38863c0.28477,-0.48441 0.33174,-0.68991 0.33174,-1.45322c0,-0.78679 -0.0411,-0.95707 -0.35229,-1.45322c-0.47853,-0.76624 -1.13028,-1.20955 -1.99634,-1.36514c-1.37101,-0.24073 -1.76735,-0.35817 -2.19304,-0.65175c-0.53431,-0.36991 -0.98936,-1.04221 -1.15377,-1.70863c-0.08807,-0.34936 -0.1145,-5.21396 -0.09101,-15.65657c0.03229,-14.71125 0.03817,-15.16336 0.25835,-15.60667c0.29064,-0.58422 0.84551,-1.13909 1.42973,-1.42973c0.44624,-0.22018 0.86312,-0.22606 15.90024,-0.22606c15.03712,0 15.454,0.00587 15.90024,0.22606c1.03633,0.5167 1.53835,1.30936 1.71744,2.73029c0.14092,1.12441 0.53431,1.81725 1.32404,2.35157c1.38276,0.92771 3.23524,0.49908 4.13066,-0.95413c0.34349,-0.5578 0.35523,-0.62532 0.34055,-1.87891c-0.02349,-2.29872 -0.76918,-3.9868 -2.55707,-5.7747c-1.20367,-1.20367 -2.17542,-1.80845 -3.64919,-2.27524l-0.94239,-0.29651l-15.91199,-0.01761c-8.75159,-0.00881 -16.17914,0.02936 -16.50208,0.08514M1442.50267,646.22723c-3.28809,0.5578 -5.98314,2.95047 -7.00186,6.21507l-0.27596,0.88074v16.26428v16.26428l0.27596,0.88074c0.90422,2.89763 3.109,5.1024 6.00663,6.00663l0.88074,0.27596h16.26428h16.26428l0.88074,-0.27596c2.89763,-0.90422 5.1024,-3.109 6.00663,-6.00663l0.27596,-0.88074v-16.26428v-16.26428l-0.27596,-0.88074c-0.89542,-2.8712 -3.09432,-5.08479 -5.94498,-5.98608l-0.94239,-0.29651l-15.91199,-0.01761c-8.75159,-0.00881 -16.17914,0.02936 -16.50208,0.08514M1474.24151,652.15166c0.81909,0.24367 1.60294,1.02753 1.84661,1.84661c0.1556,0.52257 0.17908,2.51304 0.17908,15.59199c0,12.36262 -0.02936,15.08409 -0.16147,15.5274c-0.21431,0.7134 -0.69872,1.32111 -1.3534,1.70863l-0.54019,0.31707h-15.55969h-15.55969l-0.54019,-0.31707c-0.62532,-0.36697 -1.10092,-0.94532 -1.34459,-1.6323c-0.26129,-0.74863 -0.25541,-30.30617 0.00881,-31.19572c0.23193,-0.78973 1.03046,-1.60588 1.7967,-1.84074c0.85138,-0.26129 30.34727,-0.26716 31.22801,-0.00587"/></g></svg>