<svg xmlns="http://www.w3.org/2000/svg" viewBox="0 0 24 24"><g transform="translate(-0.0000,2.6749) scale(0.264696) translate(-1404.51,-625.541)"><path d="M1446.08727,628.55757c-12.89987,0.63413 -22.52045,4.0602 -24.87789,8.85141c-0.26716,0.54899 -0.54019,1.28294 -0.60477,1.62936c-0.16147,0.86606 -0.16147,42.61301 0,43.47906c0.06459,0.34642 0.33468,1.07744 0.60184,1.62056c1.09505,2.22827 3.73433,4.18644 7.67709,5.70424c3.75781,1.44441 8.26132,2.40148 13.91565,2.95928c2.92111,0.28477 11.17068,0.28477 14.0918,0c4.56809,-0.44918 7.77397,-1.04221 11.39087,-2.10203c5.21984,-1.52955 8.88664,-3.88992 10.20187,-6.56149c0.26716,-0.54312 0.53725,-1.27413 0.60184,-1.62056c0.16147,-0.86606 0.16147,-42.61301 0,-43.47906c-0.06459,-0.34642 -0.33762,-1.08037 -0.60477,-1.62936c-2.15193,-4.37433 -10.28114,-7.60663 -21.70724,-8.63416c-1.95524,-0.17321 -8.74866,-0.31413 -10.68628,-0.21725M1453.89647,634.47613c6.95489,0.37578 12.49766,1.54423 16.45511,3.46423c1.19193,0.57835 1.70276,0.90422 2.26056,1.43267c0.39633,0.37578 0.71927,0.74863 0.71927,0.82789c0,0.21138 -0.79266,1.05395 -1.36514,1.44441c-2.80662,1.93175 -8.43159,3.46717 -15.31015,4.18057c-2.75671,0.28477 -10.86536,0.28477 -13.62207,0c-6.76993,-0.70165 -12.17473,-2.15193 -15.08997,-4.04552c-0.72808,-0.46973 -1.58533,-1.32698 -1.58533,-1.57946c0,-0.07927 0.32294,-0.45211 0.71927,-0.82789c1.69395,-1.61175 6.35305,-3.29983 11.37619,-4.12185c4.76185,-0.78092 10.26353,-1.05688 15.44226,-0.77505M1428.87473,648.7382c3.76956,1.44734 8.26719,2.40441 13.92446,2.96221c2.92111,0.28477 11.17068,0.28477 14.0918,0c4.56809,-0.44918 7.77397,-1.04221 11.39087,-2.10203c1.41212,-0.41395 3.54937,-1.21542 4.44185,-1.66753l0.60771,-0.30826v6.63489v6.63782l-0.4345,0.47853c-1.66753,1.84955 -6.81104,3.69029 -12.77656,4.57396c-3.55524,0.52844 -5.19929,0.62826 -10.27527,0.62826c-5.07598,0 -6.72003,-0.09982 -10.27527,-0.62826c-5.95966,-0.88367 -11.12371,-2.73029 -12.77069,-4.56222l-0.44037,-0.49028v-6.63782v-6.63489l0.60771,0.30826c0.33468,0.16734 1.19193,0.53138 1.90826,0.80734M1428.87473,669.28874c3.76956,1.44734 8.26719,2.40441 13.92446,2.96221c2.92111,0.28477 11.17068,0.28477 14.0918,0c4.56809,-0.44918 7.77397,-1.04221 11.39087,-2.10203c1.41212,-0.41395 3.54937,-1.21542 4.44185,-1.66753l0.60771,-0.30826v6.63489v6.63782l-0.4345,0.47853c-1.66753,1.84955 -6.81104,3.69029 -12.77656,4.57396c-3.55524,0.52844 -5.19929,0.62826 -10.27527,0.62826c-5.07598,0 -6.72003,-0.09982 -10.27527,-0.62826c-5.95966,-0.88367 -11.12371,-2.73029 -12.77069,-4.56222l-0.44037,-0.49028v-6.63782v-6.63489l0.60771,0.30826c0.33468,0.16734 1.19193,0.53138 1.90826,0.80734"/></g></svg>