<svg xmlns="http://www.w3.org/2000/svg" viewBox="0 0 24 24"><g transform="translate(-0.0000,2.6749) scale(0.264696) translate(-1404.51,-625.541)"><path d="M1448.94967,631.59486c-0.6723,0.21138 -1.28881,0.71046 -1.66459,1.34753l-0.31707,0.54019l-0.03229,14.49694l-0.02936,14.49694l-5.07892,-5.05543c-4.5446,-4.52699 -5.13763,-5.07892 -5.65433,-5.24919c-1.40918,-0.46973 -2.8213,0.05284 -3.56699,1.32111c-0.27009,0.45798 -0.31707,0.6723 -0.31413,1.42092c0,0.62239 0.06459,1.0011 0.21725,1.29175c0.11743,0.22606 3.658,3.8635 7.86498,8.08517c8.3171,8.34352 8.19379,8.23489 9.47086,8.23489c1.27707,0 1.15377,0.10862 9.47086,-8.23489c4.20699,-4.22167 7.74755,-7.85911 7.86498,-8.08517c0.15266,-0.29064 0.21725,-0.66936 0.21725,-1.29175c0.00294,-0.74863 -0.04404,-0.96294 -0.31413,-1.42092c-0.74569,-1.26826 -2.15781,-1.79083 -3.56699,-1.32111c-0.5167,0.17028 -1.10973,0.7222 -5.65433,5.24919l-5.07892,5.05543l-0.02936,-14.49694l-0.03229,-14.49694l-0.31707,-0.54019c-0.71633,-1.21835 -2.11964,-1.76441 -3.45543,-1.34753M1422.52755,666.82435c-0.6723,0.21138 -1.28881,0.71046 -1.66459,1.34753l-0.31707,0.54019v7.10461v7.10461l0.27596,0.88074c0.90422,2.89763 3.109,5.1024 6.00663,6.00663l0.88074,0.27596h22.13586h22.13586l0.88074,-0.27596c2.89763,-0.90422 5.1024,-3.109 6.00663,-6.00663l0.27596,-0.88074v-7.10461v-7.10461l-0.32,-0.54606c-1.15083,-1.95524 -3.96332,-1.95524 -5.11415,0l-0.32,0.54606l-0.05872,6.6936c-0.04404,4.99378 -0.09688,6.77874 -0.20551,7.02535c-0.25835,0.58422 -0.75743,1.13909 -1.30936,1.46496l-0.54019,0.31707h-21.43127h-21.43127l-0.54019,-0.31707c-0.55193,-0.32587 -1.05101,-0.88074 -1.30936,-1.46496c-0.10862,-0.24661 -0.16147,-2.03157 -0.20551,-7.02535l-0.05872,-6.6936l-0.31707,-0.54019c-0.71633,-1.21835 -2.11964,-1.76441 -3.45543,-1.34753"/></g></svg>