<svg xmlns="http://www.w3.org/2000/svg" viewBox="0 0 24 24"><g transform="translate(-0.0000,2.6749) scale(0.264696) translate(-1404.51,-625.541)"><path d="M1430.73739,628.61248c-3.28515,0.55486 -5.98314,2.95047 -7.00186,6.21507l-0.27596,0.88074v25.07166v25.07166l0.27596,0.88074c0.90422,2.89763 3.109,5.1024 6.00663,6.00663l0.88074,0.27596h19.20007h19.20007l0.88074,-0.27596c2.86533,-0.89248 5.03195,-3.03854 6.00663,-5.94791l0.27596,-0.82202l0.03229,-20.13072c0.02936,-18.36924 0.01468,-20.18356 -0.16147,-20.72668c-0.17615,-0.55193 -0.77211,-1.17725 -7.95893,-8.3582c-5.20516,-5.20516 -7.92076,-7.83563 -8.23489,-7.98535c-0.45211,-0.21431 -0.98349,-0.22312 -14.50281,-0.24073c-7.71819,-0.00881 -14.30024,0.02936 -14.62318,0.08514M1452.78518,639.61289c0.0411,5.11708 0.04991,5.27562 0.31413,6.07709c0.94239,2.8624 3.07964,4.99965 5.94204,5.94204c0.80147,0.26422 0.96,0.27303 6.07709,0.31413l5.25507,0.0411v16.29658c0,13.46941 -0.02936,16.39052 -0.16147,16.83383c-0.21431,0.7134 -0.69872,1.32111 -1.3534,1.70863l-0.54019,0.31707h-18.49548h-18.49548l-0.54019,-0.31707c-0.29651,-0.17321 -0.6811,-0.50496 -0.85432,-0.73101c-0.70459,-0.92477 -0.66055,0.77798 -0.66055,-25.25074c0,-26.81552 -0.07633,-24.63129 0.89248,-25.59716c0.91303,-0.91597 0.30826,-0.87193 12.10427,-0.88074l10.4749,-0.00881l0.0411,5.25507M1468.17167,646.07751c-0.49908,0.02055 -2.38973,0.02055 -4.19818,0l-3.28809,-0.03523l-0.54019,-0.31707c-0.29651,-0.17321 -0.6811,-0.50496 -0.85432,-0.73101c-0.63413,-0.83083 -0.66055,-1.05101 -0.66055,-5.39598v-4.00735l5.22571,5.22571l5.22864,5.22571l-0.91303,0.03523M1448.92756,658.0115c-0.6723,0.21138 -1.28881,0.71046 -1.66459,1.34753l-0.31707,0.54019l-0.03523,3.37616l-0.03817,3.37616h-3.08552c-3.36735,0 -3.81946,0.06459 -4.58571,0.64881c-0.23486,0.17908 -0.57248,0.56954 -0.74569,0.86606c-0.26716,0.45798 -0.31707,0.67523 -0.31707,1.42092c0,0.75156 0.04697,0.96294 0.32587,1.4356c0.17908,0.30239 0.50789,0.69285 0.73395,0.86312c0.76624,0.58716 1.04808,0.62532 4.48295,0.6312l3.1912,0.00587l0.03817,3.38497l0.03523,3.3879l0.35523,0.57542c1.18019,1.91707 3.8635,1.91707 5.04369,0l0.35523,-0.57542l0.03523,-3.3879l0.03817,-3.38497l3.1912,-0.00587c3.43488,-0.00587 3.71671,-0.04404 4.48295,-0.6312c0.22606,-0.17028 0.55486,-0.56074 0.73395,-0.86312c0.2789,-0.47266 0.32587,-0.68404 0.32587,-1.4356c0,-0.74569 -0.04991,-0.96294 -0.31707,-1.42092c-0.17321,-0.29651 -0.51083,-0.68698 -0.74569,-0.86606c-0.76624,-0.58422 -1.21835,-0.64881 -4.58571,-0.64881h-3.08552l-0.03817,-3.37616l-0.03523,-3.37616l-0.31707,-0.54019c-0.71633,-1.21835 -2.11964,-1.76441 -3.45543,-1.34753"/></g></svg>