<svg xmlns="http://www.w3.org/2000/svg" viewBox="0 0 24 24"><g transform="translate(-0.0000,2.6749) scale(0.264696) translate(-1404.51,-625.541)"><path d="M1430.73739,628.61248c-3.28515,0.55486 -5.98314,2.95047 -7.00186,6.21507l-0.27596,0.88074v25.07166v25.07166l0.27596,0.88074c0.90422,2.89763 3.109,5.1024 6.00663,6.00663l0.88074,0.27596h19.20007h19.20007l0.88074,-0.27596c2.86533,-0.89248 5.03195,-3.03854 6.00663,-5.94791l0.27596,-0.82202l0.03229,-20.13072c0.02936,-18.36924 0.01468,-20.18356 -0.16147,-20.72668c-0.17615,-0.55193 -0.77211,-1.17725 -7.95893,-8.3582c-5.20516,-5.20516 -7.92076,-7.83563 -8.23489,-7.98535c-0.45211,-0.21431 -0.98349,-0.22312 -14.50281,-0.24073c-7.71819,-0.00881 -14.30024,0.02936 -14.62318,0.08514M1452.78518,639.61289c0.0411,5.11708 0.04991,5.27562 0.31413,6.07709c0.94239,2.8624 3.07964,4.99965 5.94204,5.94204c0.80147,0.26422 0.96,0.27303 6.07709,0.31413l5.25507,0.0411v16.29658c0,13.46941 -0.02936,16.39052 -0.16147,16.83383c-0.21431,0.7134 -0.69872,1.32111 -1.3534,1.70863l-0.54019,0.31707h-18.49548h-18.49548l-0.54019,-0.31707c-0.29651,-0.17321 -0.6811,-0.50496 -0.85432,-0.73101c-0.70459,-0.92477 -0.66055,0.77798 -0.66055,-25.25074c0,-26.81552 -0.07633,-24.63129 0.89248,-25.59716c0.91303,-0.91597 0.30826,-0.87193 12.10427,-0.88074l10.4749,-0.00881l0.0411,5.25507M1468.17167,646.07751c-0.49908,0.02055 -2.38973,0.02055 -4.19818,0l-3.28809,-0.03523l-0.54019,-0.31707c-0.29651,-0.17321 -0.6811,-0.50496 -0.85432,-0.73101c-0.63413,-0.83083 -0.66055,-1.05101 -0.66055,-5.39598v-4.00735l5.22571,5.22571l5.22864,5.22571l-0.91303,0.03523M1442.89744,659.50288c-0.15853,0.06165 -0.46679,0.24954 -0.6811,0.41395c-0.41688,0.31707 -6.32663,7.62719 -6.75819,8.3582c-0.36404,0.61358 -0.36404,2.01102 0,2.6246c0.30239,0.51376 6.22388,7.91196 6.62902,8.28187c0.6811,0.62532 2.05505,0.84844 2.92992,0.47853c0.58716,-0.24954 1.25065,-0.86312 1.5501,-1.42973c0.30239,-0.58422 0.34936,-1.79964 0.08807,-2.41909c-0.09395,-0.22606 -1.21835,-1.71744 -2.49542,-3.31744l-2.32221,-2.90643l2.32221,-2.90643c1.27707,-1.59707 2.40148,-3.09139 2.49542,-3.31744c0.26129,-0.61945 0.21431,-1.83487 -0.08807,-2.41909c-0.29358,-0.5578 -0.96294,-1.18019 -1.5178,-1.41212c-0.44037,-0.18495 -1.72037,-0.20257 -2.15193,-0.02936M1454.57015,659.53224c-1.3945,0.62826 -2.149,2.32515 -1.63524,3.67267c0.13211,0.34349 1.07744,1.6323 2.5424,3.46423l2.33102,2.91818l-2.33102,2.91818c-1.46496,1.83193 -2.41028,3.12075 -2.5424,3.46423c-0.51964,1.35927 0.25248,3.07964 1.64404,3.66974c0.92477,0.39046 2.28111,0.18202 2.97983,-0.45798c0.40514,-0.36991 6.32663,-7.7681 6.62902,-8.28187c0.39633,-0.6723 0.36404,-2.01395 -0.06459,-2.72148c-0.6312,-1.04221 -6.36479,-8.03526 -6.88149,-8.39343c-0.4433,-0.30826 -0.62532,-0.35817 -1.40918,-0.38459c-0.58129,-0.02055 -1.03046,0.02642 -1.26239,0.13211"/></g></svg>