<svg xmlns="http://www.w3.org/2000/svg" viewBox="0 0 24 24"><g transform="translate(-0.0000,2.6749) scale(0.264696) translate(-1404.51,-625.541)"><path d="M1419.58954,631.58656c-1.53542,0.48147 -2.38386,2.14606 -1.87303,3.68442c0.16734,0.50202 1.98166,2.70093 11.75491,14.25327l11.55821,13.66024l0.00294,9.28591c0.00294,10.46022 -0.03229,10.00811 0.8778,10.90353c0.71633,0.70459 12.66794,6.64663 13.534,6.73177c0.84844,0.0822 1.71157,-0.23193 2.32515,-0.84551c0.93358,-0.93358 0.88074,-0.10569 0.88367,-13.854l0.00294,-12.2217l11.54059,-13.63969c6.34718,-7.50388 11.60812,-13.79235 11.69326,-13.97437c0.47266,-1.03927 0.20551,-2.43964 -0.62826,-3.27047c-0.96294,-0.96588 2.01395,-0.88074 -31.41003,-0.87193c-24.00596,0.00587 -29.87167,0.03523 -30.26213,0.15853M1471.66461,638.7176c-12.51234,14.76703 -18.36337,21.7366 -18.57181,22.11825l-0.25541,0.46973l-0.03229,10.53949c-0.01761,5.79819 -0.05578,10.53949 -0.08807,10.53949c-0.02936,0 -1.34753,-0.64587 -2.92992,-1.4356l-2.87414,-1.4356l-0.03229,-9.10389c-0.03229,-9.09802 -0.03229,-9.10389 -0.28771,-9.57361c-0.20844,-0.38165 -5.92443,-7.18975 -18.61292,-22.16522l-1.16844,-1.37982h23.03128h23.03128l-1.20955,1.42679"/></g></svg>