<svg xmlns="http://www.w3.org/2000/svg" viewBox="0 0 24 24"><g transform="translate(-0.0000,2.6749) scale(0.264696) translate(-1404.51,-625.541)"><path d="M1419.59452,631.58032c-1.53835,0.48147 -2.38386,2.14606 -1.87303,3.68442c0.16734,0.50202 1.98166,2.70093 11.75491,14.25327l11.55821,13.66024l0.00294,9.28591c0.00294,10.46022 -0.03229,10.00811 0.8778,10.90353c0.71633,0.70459 12.66794,6.64663 13.534,6.73177c0.84844,0.0822 1.71157,-0.23193 2.32515,-0.84551c0.93358,-0.93358 0.88074,-0.10569 0.88367,-13.854l0.00294,-12.2217l1.06863,-1.23303c1.23597,-1.42679 1.53248,-1.99047 1.53835,-2.92111c0.00587,-1.10092 -0.51376,-1.96992 -1.53542,-2.56882c-0.44918,-0.26422 -0.6811,-0.31707 -1.37101,-0.31707c-1.22422,0 -1.61762,0.2789 -3.47598,2.43671c-0.84551,0.98055 -1.64991,1.99634 -1.79083,2.25469c-0.25248,0.46973 -0.25248,0.47266 -0.28477,11.00922c-0.01761,5.79819 -0.05578,10.53949 -0.08807,10.53949c-0.02936,0 -1.34753,-0.64587 -2.92992,-1.4356l-2.87414,-1.4356l-0.03229,-9.10389c-0.03229,-9.09802 -0.03229,-9.10389 -0.28771,-9.57361c-0.14092,-0.25835 -4.63561,-5.64846 -9.9905,-11.97803l-9.73802,-11.5083l13.39895,-0.05872l13.39601,-0.05872l0.48734,-0.26129c1.65579,-0.88367 2.10203,-3.08258 0.9101,-4.47708c-0.23486,-0.27303 -0.64294,-0.61358 -0.9101,-0.7545l-0.48734,-0.26129l-16.79272,-0.02349c-13.5017,-0.01761 -16.88667,0.00881 -17.27713,0.13211M1463.55799,631.59206c-0.65175,0.2378 -1.23303,0.72808 -1.5912,1.33578c-0.26716,0.45798 -0.31707,0.67523 -0.31707,1.42092c0,0.74569 0.04697,0.96294 0.31413,1.40918c0.17321,0.29064 1.53542,1.74386 3.02386,3.22643l2.7068,2.70093l-2.80368,2.81836c-1.54129,1.55303 -2.89469,3.00038 -3.00331,3.21763c-0.6723,1.33285 -0.13211,3.07084 1.19487,3.85176c0.48441,0.28477 0.68991,0.33174 1.44441,0.33174c0.74569,0 0.96294,-0.04697 1.40918,-0.31413c0.29064,-0.17321 1.74386,-1.53542 3.22643,-3.02386l2.70093,-2.7068l2.81836,2.80368c1.55303,1.54129 3.00625,2.90056 3.23231,3.02093c0.29064,0.15266 0.66642,0.21725 1.29175,0.21725c0.75743,0.00294 0.96,-0.04404 1.44441,-0.32881c0.65175,-0.38165 1.20074,-1.08331 1.38863,-1.77028c0.15853,-0.59597 0.07046,-1.55891 -0.19376,-2.08148c-0.10862,-0.21725 -1.46202,-1.66459 -3.00331,-3.21763l-2.80368,-2.81836l2.7068,-2.70093c1.48845,-1.48257 2.85065,-2.93579 3.02386,-3.22643c0.26716,-0.44624 0.31413,-0.66349 0.31413,-1.40918c0,-0.74569 -0.04991,-0.96294 -0.31707,-1.42092c-0.74569,-1.26826 -2.16074,-1.79377 -3.56699,-1.32111c-0.50202,0.17028 -0.96,0.57542 -3.45543,3.04735l-2.87708,2.85359l-2.87708,-2.85359c-2.49249,-2.47194 -2.95341,-2.87708 -3.45543,-3.04735c-0.68991,-0.23193 -1.37395,-0.2378 -1.97579,-0.01468"/></g></svg>