<svg xmlns="http://www.w3.org/2000/svg" viewBox="0 0 24 24"><g transform="translate(-0.0000,2.6749) scale(0.264696) translate(-1404.51,-625.541)"><path d="M1431.33492,628.67829c-0.6723,0.21138 -1.28881,0.71046 -1.66459,1.34753l-0.31707,0.54019l-0.03817,6.63489c-0.03817,7.01067 -0.00294,7.65948 0.50202,9.13912c0.57835,1.69982 1.20661,2.62166 3.29396,4.83525c0.92771,0.98055 1.48845,1.68221 1.69102,2.11377l0.30532,0.64587l0.05872,16.02942l0.05872,16.02942l0.27596,0.82202c0.97468,2.90937 3.1413,5.05543 6.00663,5.94791l0.88074,0.27596h7.45691h7.45691l0.88074,-0.27596c2.86533,-0.89248 5.03195,-3.03854 6.00663,-5.94791l0.27596,-0.82202l0.05872,-16.02942l0.05872,-16.02942l0.30532,-0.64587c0.20257,-0.42863 0.76624,-1.13909 1.68514,-2.11377c2.11964,-2.25469 2.72441,-3.13836 3.29983,-4.83525c0.50496,-1.47964 0.54019,-2.12845 0.50202,-9.13912l-0.03817,-6.63489l-0.31707,-0.54019c-0.38752,-0.65468 -0.99523,-1.13909 -1.70863,-1.3534c-0.76918,-0.23193 -36.23647,-0.22606 -36.97629,0.00587M1464.52404,637.31832v2.93579h-14.67896h-14.67896v-2.93579v-2.93579h14.67896h14.67896v2.93579M1462.1666,647.27065c-2.14313,2.25762 -2.98276,3.75781 -3.39084,6.06828c-0.0822,0.46385 -0.1233,5.81874 -0.1233,15.98245c0,12.61216 -0.02936,15.37767 -0.16147,15.82098c-0.21431,0.7134 -0.69872,1.32111 -1.3534,1.70863l-0.54019,0.31707h-6.75232h-6.75232l-0.54019,-0.31707c-0.29651,-0.17321 -0.6811,-0.50496 -0.85432,-0.73101c-0.69578,-0.91303 -0.66055,-0.01468 -0.66055,-16.73694c0,-10.20775 -0.0411,-15.58024 -0.1233,-16.0441c-0.41982,-2.36625 -1.36221,-3.99855 -3.67561,-6.36186l-0.83376,-0.85138h13.42537h13.42537l-1.08918,1.14496M1448.94967,658.0362c-0.6723,0.21138 -1.28881,0.71046 -1.66459,1.34753c-0.27009,0.45798 -0.31707,0.67523 -0.31707,1.42973c0,0.78679 0.0411,0.95707 0.35523,1.4679c1.18019,1.91707 3.8635,1.91707 5.04369,0c0.31413,-0.51083 0.35523,-0.6811 0.35523,-1.4679c0,-0.7545 -0.04697,-0.97175 -0.31707,-1.42973c-0.71633,-1.21835 -2.11964,-1.76441 -3.45543,-1.34753"/></g></svg>