<svg xmlns="http://www.w3.org/2000/svg" viewBox="0 0 24 24"><g transform="translate(-0.0000,2.6749) scale(0.264696) translate(-1404.51,-625.541)"><path d="M1424.86126,632.98753c-3.29689,0.56954 -5.98314,2.95341 -7.00186,6.21801l-0.27596,0.88074v20.66797v20.66797l0.27596,0.88074c0.89248,2.86533 3.03854,5.03195 5.94791,6.00663l0.82202,0.27596l22.48816,0.03229c25.12744,0.03817 23.43936,0.09101 25.33294,-0.7956c2.149,-1.00404 3.79891,-2.76258 4.55928,-4.84993c0.24661,-0.68698 4.40956,-16.70759 4.88516,-18.81255c0.92184,-4.07781 -1.23597,-8.3259 -5.08479,-10.01105l-0.54312,-0.24073l-0.05284,-2.56588c-0.04991,-2.24588 -0.08807,-2.66863 -0.32,-3.3879c-0.91303,-2.84185 -3.11781,-5.04075 -5.93323,-5.92443l-0.94239,-0.29358l-9.92297,-0.06165l-9.92297,-0.06165l-0.49028,-0.26129c-0.5989,-0.32294 -0.96294,-0.76918 -2.50717,-3.08552c-1.62936,-2.44551 -2.80074,-3.6257 -4.34791,-4.38607c-2.00221,-0.98349 -1.62936,-0.94532 -9.44738,-0.97175c-3.81066,-0.01174 -7.19562,0.02349 -7.51856,0.07927M1438.69471,638.89728c0.86899,0.26129 1.17138,0.56367 2.45139,2.45139c1.87303,2.75671 2.48074,3.53176 3.28809,4.18644c0.97175,0.78386 2.37505,1.47083 3.62277,1.76735c0.96,0.22899 1.36808,0.2378 10.34279,0.24073c10.60114,0 10.15197,-0.03523 11.07968,0.88954c0.73688,0.73688 0.88954,1.31523 0.88954,3.35561v1.62056l-15.00189,0.03523c-16.8808,0.03817 -15.42171,-0.04404 -17.4797,0.96588c-1.15377,0.56661 -2.39561,1.60588 -3.15598,2.64221c-0.4345,0.59009 -4.70607,8.71636 -5.18754,9.86719c-0.49028,1.16844 -0.26716,2.36331 0.60184,3.23231c1.14789,1.14789 2.97983,1.15083 4.10424,0c0.35229,-0.35817 1.09505,-1.68514 2.82423,-5.0525c1.40037,-2.72441 2.49542,-4.71488 2.71267,-4.93213c0.20257,-0.20257 0.57248,-0.46973 0.82496,-0.59597c0.44624,-0.22018 0.90422,-0.22606 16.71639,-0.25541c17.86722,-0.03523 16.98062,-0.06752 17.87603,0.6723c0.24073,0.19963 0.57542,0.65175 0.75156,1.00698c0.26716,0.54899 0.30826,0.75156 0.25541,1.31817c-0.07339,0.78386 -4.57983,18.42502 -4.83525,18.91237c-0.24954,0.48734 -1.01578,1.13322 -1.60588,1.35634c-0.4756,0.18202 -2.21946,0.19376 -22.4177,0.1644l-21.901,-0.03229l-0.54019,-0.31707c-0.62532,-0.36697 -1.10092,-0.94532 -1.34459,-1.6323c-0.26422,-0.75156 -0.25541,-39.11354 0.00881,-40.00309c0.23193,-0.78973 1.03046,-1.60588 1.7967,-1.84074c0.79266,-0.24367 12.51821,-0.26422 13.32262,-0.02349"/></g></svg>