<svg xmlns="http://www.w3.org/2000/svg" viewBox="0 0 24 24"><g transform="translate(-0.0000,2.6749) scale(0.264696) translate(-1404.51,-625.541)"><path d="M1431.1805,628.6672c-0.28477,0.10569 -0.74276,0.41688 -1.01872,0.69285c-0.59597,0.59597 -0.83964,1.29175 -1.23303,3.52589c-0.34349,1.96111 -0.37578,5.10828 -0.06752,6.98718l0.20551,1.24184l-0.52551,0.98936c-1.52074,2.8624 -2.17836,5.60736 -2.18129,9.09508c-0.00587,3.47598 0.42569,5.76002 1.57652,8.39343c1.40918,3.22056 4.01323,6.14461 7.29544,8.19086c1.72625,1.07744 3.35561,1.77615 5.68663,2.44258c0.61358,0.17321 1.13322,0.33174 1.15377,0.34936c0.02055,0.02055 -0.12624,0.54606 -0.32587,1.17138c-0.33174,1.03927 -0.54019,2.0756 -0.79266,3.98093c-0.09101,0.6723 -0.10862,0.69872 -0.54606,0.85138c-0.67523,0.23193 -2.39561,0.51083 -3.12955,0.50496c-1.45028,-0.00587 -3.01799,-0.57542 -4.24809,-1.54129c-0.36697,-0.28771 -1.42386,-1.22716 -2.34863,-2.09322c-1.90826,-1.78203 -2.75671,-2.43964 -3.86057,-2.99744c-1.4679,-0.73982 -3.2235,-1.03927 -4.23928,-0.72514c-1.94349,0.60184 -2.7068,2.87414 -1.51487,4.51818c0.47853,0.65762 1.1978,1.05395 2.17249,1.19193c1.0334,0.14679 1.47964,0.45211 3.70497,2.5512c2.44845,2.30753 3.97506,3.39671 5.74828,4.08956c2.05212,0.80441 4.38901,1.05688 6.67305,0.71927c0.72514,-0.10862 1.39744,-0.22606 1.49138,-0.26129c0.14385,-0.05578 0.17321,0.54899 0.20257,4.21286l0.03523,4.27451l0.35523,0.57835c1.18019,1.91707 3.8635,1.91707 5.04369,0l0.35523,-0.57835l0.02055,-7.75049c0.01468,-5.14351 0.06459,-8.0059 0.15266,-8.51086c0.26716,-1.52368 0.88074,-2.9446 1.94643,-4.5035c0.66642,-0.97175 0.87487,-1.509 0.87193,-2.26937c0,-0.99523 -0.96294,-2.33102 -1.89065,-2.62166c-0.21725,-0.06752 -1.13615,-0.18202 -2.04037,-0.24954c-3.88699,-0.29945 -6.9725,-1.51487 -9.47086,-3.73139c-3.01212,-2.67157 -4.20992,-5.61617 -4.20992,-10.34573c0,-2.83891 0.62826,-4.88516 2.34276,-7.63599c0.62532,-1.0011 0.6811,-1.49138 0.36404,-3.06203c-0.39633,-1.96404 -0.54899,-5.05837 -0.24954,-5.05837c0.18202,0 2.29285,1.28 3.64625,2.21065c1.91414,1.31523 2.17836,1.38863 3.9868,1.08037c7.01654,-1.19487 13.90391,-1.19487 20.92045,0c1.80845,0.30826 2.07267,0.23486 3.9868,-1.08037c1.45322,-1.0011 3.46717,-2.21065 3.67855,-2.21065c0.19963,0 0,3.59634 -0.2789,5.0202c-0.31707,1.62349 -0.26129,2.09909 0.3611,3.1002c1.7145,2.75084 2.34276,4.79708 2.34276,7.63599c0,4.72956 -1.1978,7.67416 -4.20992,10.34573c-2.56588,2.27817 -5.8569,3.52295 -9.9993,3.78717c-1.38276,0.08807 -1.76147,0.20844 -2.39267,0.76331c-0.56367,0.49321 -0.89835,1.1567 -0.97762,1.93175c-0.08514,0.80441 0.07633,1.25945 0.86899,2.43671c1.19193,1.77028 1.85836,3.53469 1.98753,5.258c0.03523,0.48441 0.07339,4.16002 0.08514,8.17031l0.01761,7.28957l0.35523,0.57835c1.18019,1.91707 3.8635,1.91707 5.04369,0l0.35523,-0.57835l0.06459,-7.407c0.03817,-4.07488 0.02642,-7.8826 -0.02642,-8.46389c-0.10569,-1.20074 -0.33762,-2.28698 -0.76624,-3.61983c-0.16147,-0.50202 -0.27596,-0.93358 -0.25248,-0.95413c0.02349,-0.02055 0.54312,-0.17908 1.1567,-0.35229c3.76662,-1.0745 6.46755,-2.58643 9.02462,-5.04956c2.72148,-2.62166 4.41249,-5.72186 5.19341,-9.52958c0.31119,-1.509 0.4433,-5.58975 0.23193,-7.08113c-0.32,-2.25469 -1.05395,-4.54167 -2.07267,-6.46461l-0.52551,-0.9923l0.17908,-1.3945c0.42569,-3.26754 0.04991,-7.99122 -0.76918,-9.6793c-0.30532,-0.63413 -0.92477,-1.15083 -1.67634,-1.40037c-1.73799,-0.57835 -5.43415,0.7545 -9.39747,3.39084l-1.04514,0.69285l-0.71633,-0.1233c-3.5435,-0.61652 -9.06572,-0.92184 -13.10831,-0.72514c-2.62753,0.12624 -5.79232,0.4345 -7.46278,0.72514l-0.71633,0.1233l-1.45615,-0.95413c-3.73433,-2.44258 -7.47452,-3.71084 -9.14205,-3.09726"/></g></svg>