<svg xmlns="http://www.w3.org/2000/svg" viewBox="0 0 24 24"><g transform="translate(-0.0000,2.6749) scale(0.264696) translate(-1404.51,-625.541)"><path d="M1447.73278,628.52547c-0.22606,0.02642 -0.96588,0.10569 -1.64404,0.17615c-5.54277,0.58716 -10.94756,2.75964 -15.73584,6.31782c-1.7879,1.32991 -4.92039,4.4624 -6.26498,6.25911c-7.33361,9.82609 -8.58719,22.50284 -3.31451,33.50618c1.60294,3.34093 3.4613,5.93323 6.28553,8.75453c2.8213,2.82423 5.4136,4.68259 8.75453,6.28553c11.00041,5.27268 23.68596,4.01323 33.51793,-3.32625c1.7879,-1.33285 4.92919,-4.47415 6.26204,-6.26204c8.73104,-11.69913 8.73104,-27.27056 0,-38.96969c-1.33285,-1.78496 -4.47121,-4.92332 -6.25323,-6.24736c-4.68259,-3.48185 -9.61472,-5.50461 -15.31602,-6.27966c-1.24184,-0.17028 -5.42828,-0.31119 -6.2914,-0.21431M1442.73019,635.59192c-4.02497,6.08002 -6.63782,13.44005 -7.33948,20.66797l-0.14973,1.55597h-5.80699h-5.80699l0.07339,-0.70165c0.33468,-3.21763 1.9934,-7.70352 3.95157,-10.68922c2.69212,-4.1013 6.29727,-7.28957 10.62756,-9.4004c1.36808,-0.66642 4.19231,-1.75267 4.56516,-1.7556c0.05578,0 0.00294,0.14385 -0.1145,0.32294M1458.5952,635.82678c4.48295,1.5501 8.82205,4.62387 11.84005,8.39343c2.95634,3.68735 5.12296,8.71343 5.55745,12.89399l0.07339,0.70165h-5.80406h-5.80699l-0.14385,-1.49725c-0.70459,-7.26902 -3.29102,-14.56152 -7.35416,-20.73256l-0.21725,-0.33174l0.34055,0.0822c0.18789,0.04697 0.86899,0.26716 1.51487,0.49028M1450.64802,636.88661c4.38607,5.76296 7.00773,12.52115 7.83269,20.19531l0.07927,0.73395h-8.70168c-6.99012,0 -8.70168,-0.02936 -8.70168,-0.14973c0,-0.31413 0.35817,-3.01799 0.53138,-4.02497c0.65175,-3.76956 2.27524,-8.36407 4.18644,-11.85472c1.17725,-2.14606 3.68148,-5.81287 3.97213,-5.81287c0.05872,0 0.41982,0.41101 0.80147,0.91303M1435.39071,665.24341c0.66642,6.87856 3.05909,13.86281 6.76406,19.75494c0.40807,0.64587 0.72514,1.19487 0.70459,1.21542c-0.12624,0.12917 -3.34093,-1.10679 -4.8147,-1.85248c-3.53763,-1.7879 -6.38535,-4.08075 -8.77802,-7.06645c-2.96515,-3.70203 -5.12883,-8.7193 -5.56626,-12.90574l-0.07339,-0.70165h5.80699h5.80699l0.14973,1.55597M1458.53649,663.83717c0,0.0822 -0.07927,0.78679 -0.17615,1.56184c-0.83964,6.80223 -3.16478,12.82647 -7.06938,18.33989c-0.4022,0.56367 -0.88954,1.21248 -1.08624,1.43854l-0.35817,0.41101l-0.35817,-0.41101c-1.14789,-1.32111 -3.11487,-4.41837 -4.20992,-6.63489c-2.16955,-4.3802 -3.34974,-8.30829 -3.9457,-13.14354c-0.09688,-0.77505 -0.17615,-1.47964 -0.17615,-1.56184c0,-0.12037 1.70863,-0.14973 8.68994,-0.14973c6.98131,0 8.68994,0.02936 8.68994,0.14973M1475.9927,664.3891c-0.33468,3.21763 -1.9934,7.70352 -3.95157,10.68922c-2.68625,4.09249 -6.17397,7.19269 -10.51013,9.33875c-1.49725,0.73982 -4.5769,1.92001 -4.69727,1.7967c-0.02055,-0.02055 0.29651,-0.56954 0.70459,-1.21835c3.71084,-5.898 6.10057,-12.89399 6.77287,-19.81072l0.14385,-1.49725h5.80699h5.80406l-0.07339,0.70165"/></g></svg>