<svg xmlns="http://www.w3.org/2000/svg" viewBox="0 0 24 24"><g transform="translate(-0.0000,2.6749) scale(0.264696) translate(-1404.51,-625.541)"><path d="M1434.69495,631.54676c-7.74755,0.81321 -14.22684,6.22094 -16.38465,13.67785c-0.56367,1.94349 -0.70165,3.00038 -0.69578,5.34314c0.00294,1.79377 0.04991,2.3868 0.26716,3.40552c0.83083,3.88992 2.43377,6.98425 5.59562,10.80665c1.28881,1.55597 24.29661,24.59899 24.95129,24.98945c0.44624,0.26716 0.66349,0.31413 1.40918,0.31413c0.74569,0 0.96294,-0.04697 1.40918,-0.31413c0.62826,-0.37285 23.22798,-22.99018 24.61954,-24.64009c3.40552,-4.02791 5.06718,-7.16333 5.9303,-11.18243c0.34055,-1.57652 0.37578,-4.97323 0.07046,-6.60847c-1.33285,-7.15159 -6.1358,-12.70023 -12.94684,-14.95786c-2.94166,-0.97468 -6.44993,-1.18606 -9.91123,-0.59303c-2.9857,0.51083 -5.74534,1.77909 -8.43746,3.88405l-0.73395,0.57248l-0.73395,-0.57248c-2.70974,-2.11964 -5.44589,-3.37322 -8.49618,-3.89579c-1.60588,-0.27303 -4.44185,-0.38459 -5.91268,-0.22899M1438.4645,637.42128c3.33506,0.34055 5.68076,1.50313 8.69288,4.31268c1.33578,1.24478 1.58239,1.37101 2.68038,1.37101c1.09799,0 1.34459,-0.12624 2.68038,-1.37101c1.73799,-1.62056 3.5024,-2.83891 4.99672,-3.44662c1.88478,-0.76918 4.60626,-1.12441 6.83452,-0.89248c6.27672,0.65468 11.12665,5.47231 11.80188,11.72849c0.42275,3.91047 -0.85432,7.407 -4.21286,11.54353c-0.58129,0.7134 -5.43708,5.67782 -11.5494,11.80188l-10.5483,10.56885l-10.33986,-10.33398c-5.68663,-5.68369 -10.78903,-10.86243 -11.33802,-11.5083c-2.149,-2.53065 -3.59047,-4.97617 -4.21873,-7.16333c-1.74092,-6.0536 1.21248,-12.6239 6.91966,-15.38648c2.35157,-1.13909 4.70607,-1.5178 7.60076,-1.22422"/></g></svg>