<svg xmlns="http://www.w3.org/2000/svg" viewBox="0 0 24 24"><g transform="translate(-0.0000,2.6749) scale(0.264696) translate(-1404.51,-625.541)"><path d="M1427.82371,631.54828c-3.28515,0.55486 -5.98314,2.95047 -7.00186,6.21507l-0.27596,0.88074v22.13586v22.13586l0.27596,0.88074c0.90422,2.89763 3.109,5.1024 6.00663,6.00663l0.88074,0.27596h22.13586h22.13586l0.88074,-0.27596c2.89763,-0.90422 5.1024,-3.109 6.00663,-6.00663l0.27596,-0.88074v-22.13586v-22.13586l-0.27596,-0.88074c-0.89542,-2.8712 -3.09432,-5.08479 -5.94498,-5.98608l-0.94239,-0.29651l-21.78357,-0.01761c-11.98096,-0.00881 -22.05073,0.02936 -22.37366,0.08514M1471.30571,637.4727c0.81909,0.24367 1.60294,1.02753 1.84661,1.84661c0.1556,0.51964 0.17908,2.12258 0.17908,11.87234v11.27344l-2.37799,-2.3457c-1.30643,-1.29175 -2.61579,-2.5101 -2.90643,-2.7068c-1.56184,-1.05982 -2.95634,-1.47083 -4.99084,-1.47083c-2.02863,0 -3.39671,0.4022 -4.99084,1.46496c-0.29064,0.19376 -6.50571,6.32076 -13.8129,13.61913l-13.28445,13.26684l-1.27707,-0.04404c-1.13028,-0.03817 -1.33872,-0.07927 -1.81725,-0.35817c-0.29651,-0.17615 -0.6811,-0.50496 -0.85432,-0.73101c-0.70165,-0.92184 -0.66055,0.50496 -0.66055,-22.31495c0,-18.38979 0.02055,-20.99678 0.17908,-21.52522c0.23193,-0.78973 1.03046,-1.60588 1.7967,-1.84074c0.85432,-0.26129 42.0875,-0.27009 42.97117,-0.00587M1439.56688,643.28263c-3.33506,0.60477 -5.98608,2.96221 -7.00186,6.22388c-0.39633,1.27413 -0.39633,3.658 0,4.93213c0.90129,2.89469 3.11194,5.10534 6.00663,6.00663c1.27413,0.39633 3.658,0.39633 4.93213,0c2.89469,-0.90129 5.10534,-3.11194 6.00663,-6.00663c0.39633,-1.27413 0.39633,-3.658 0,-4.93213c-0.89542,-2.88001 -3.15891,-5.14644 -5.94498,-5.96259c-1.05982,-0.31119 -3.02093,-0.43743 -3.99855,-0.26129M1441.9478,649.21587c1.10973,0.32881 2.0257,1.57652 2.0257,2.75964c0,0.96881 -0.63413,2.04037 -1.51487,2.55707c-0.45798,0.26716 -0.67523,0.31707 -1.42092,0.31707c-0.74569,0 -0.96294,-0.04991 -1.42092,-0.31707c-1.70569,-1.00404 -2.00515,-3.2235 -0.62239,-4.60626c0.81909,-0.81909 1.7967,-1.05395 2.95341,-0.71046M1464.28917,662.02766c0.26422,0.10862 1.95817,1.7145 4.72662,4.48002l4.31561,4.31268v5.41066c0,5.87745 -0.02055,6.08883 -0.64881,6.91379c-0.17908,0.23486 -0.56954,0.57248 -0.86606,0.74569l-0.54019,0.31707l-15.9707,0.02936l-15.9707,0.03229l10.97986,-10.98867c6.03892,-6.04479 11.12371,-11.065 11.29986,-11.15894c0.77798,-0.41395 1.80845,-0.44918 2.67451,-0.09395"/></g></svg>