<svg xmlns="http://www.w3.org/2000/svg" viewBox="0 0 24 24"><g transform="translate(-0.0000,2.6749) scale(0.264696) translate(-1404.51,-625.541)"><path d="M1447.73278,628.52547c-0.22606,0.02642 -0.96588,0.10569 -1.64404,0.17615c-5.54277,0.58716 -10.94756,2.75964 -15.73584,6.31782c-1.7879,1.32991 -4.92039,4.4624 -6.26498,6.25911c-7.33361,9.82609 -8.58719,22.50284 -3.31451,33.50618c1.60294,3.34093 3.4613,5.93323 6.28553,8.75453c2.8213,2.82423 5.4136,4.68259 8.75453,6.28553c11.00041,5.27268 23.68596,4.01323 33.51793,-3.32625c1.7879,-1.33285 4.92919,-4.47415 6.26204,-6.26204c8.73104,-11.69913 8.73104,-27.27056 0,-38.96969c-1.33285,-1.78496 -4.47121,-4.92332 -6.25323,-6.24736c-4.68259,-3.48185 -9.61472,-5.50461 -15.31602,-6.27966c-1.24184,-0.17028 -5.42828,-0.31119 -6.2914,-0.21431M1453.72179,634.62605c7.52443,1.13615 14.10354,5.3725 18.31934,11.79894c0.88954,1.35927 2.18129,3.98974 2.73616,5.578c1.01578,2.91524 1.42386,5.41653 1.42386,8.74866c0,4.38314 -0.7545,7.69471 -2.6334,11.56702c-2.06973,4.26864 -5.19341,7.82975 -9.25655,10.54536c-2.31634,1.5501 -6.02131,3.1002 -8.86315,3.71378c-7.75636,1.67047 -15.93841,-0.26129 -22.12999,-5.21984c-4.44185,-3.55818 -7.77397,-8.77802 -9.10976,-14.26501c-0.54606,-2.24001 -0.71633,-3.73433 -0.71633,-6.34131c0,-4.38314 0.7545,-7.69471 2.6334,-11.56702c3.08552,-6.36773 8.68113,-11.2705 15.38354,-13.48702c2.06973,-0.68404 3.73433,-1.02166 6.40002,-1.29762c0.94532,-0.09688 4.61213,0.04404 5.81287,0.22606M1448.95113,646.23416c-0.67817,0.22018 -1.29175,0.71927 -1.66459,1.3534c-0.26716,0.45798 -0.31707,0.67523 -0.31707,1.42092c0,0.7545 0.04697,0.96 0.33174,1.44441c1.52074,2.58937 5.47525,1.54423 5.47525,-1.44441c0,-1.10679 -0.60477,-2.11083 -1.57065,-2.60698c-0.58129,-0.29945 -1.62056,-0.37578 -2.25469,-0.16734M1448.95113,657.9832c-0.6723,0.21138 -1.28881,0.71046 -1.66459,1.34753l-0.31707,0.54019v6.76113v6.76113l0.35523,0.57835c0.19963,0.32294 0.60184,0.74276 0.91303,0.95413c1.38276,0.92771 3.23524,0.50202 4.13066,-0.95413l0.35523,-0.57835v-6.76113v-6.76113l-0.31707,-0.54019c-0.71633,-1.21835 -2.11964,-1.76441 -3.45543,-1.34753"/></g></svg>