<svg xmlns="http://www.w3.org/2000/svg" viewBox="0 0 24 24"><g transform="translate(-0.0000,2.6749) scale(0.264696) translate(-1404.51,-625.541)"><path d="M1434.27,628.64617c-0.6723,0.21138 -1.28881,0.71046 -1.66459,1.34753c-0.26716,0.45798 -0.31707,0.67523 -0.31707,1.42092c0,0.75156 0.04697,0.96294 0.32587,1.4356c0.36697,0.62532 0.93358,1.10092 1.58239,1.33285c0.61064,0.21725 4.26277,0.21725 4.87341,0c0.64881,-0.23193 1.21542,-0.70753 1.58239,-1.33285c0.2789,-0.47266 0.32587,-0.68404 0.32587,-1.4356c0,-0.74569 -0.04991,-0.96294 -0.31707,-1.42092c-0.38752,-0.65468 -0.99523,-1.13909 -1.70863,-1.3534c-0.70459,-0.21138 -3.99855,-0.20844 -4.68259,0.00587M1419.59105,637.45355c-1.89065,0.59009 -2.63047,2.88588 -1.45909,4.5035c0.19083,0.26422 0.60184,0.62826 0.9101,0.81028l0.56367,0.33174l12.35968,0.05872l12.35968,0.05872l-1.24478,1.87891c-1.16257,1.75267 -1.42092,2.05505 -3.84295,4.48882l-2.59524,2.60992l-2.88295,-2.85652c-2.49542,-2.47487 -2.95634,-2.88001 -3.45836,-3.05029c-1.40624,-0.47266 -2.8213,0.05284 -3.56699,1.32111c-0.26716,0.45798 -0.31707,0.67523 -0.31707,1.42092c0,0.74569 0.04697,0.96294 0.31413,1.40918c0.17321,0.29064 1.53542,1.74386 3.02386,3.22643l2.70974,2.70093l-4.27451,4.28625c-2.34863,2.36038 -4.37139,4.47415 -4.48882,4.7002c-0.15266,0.29064 -0.21725,0.66936 -0.21725,1.29175c-0.00294,0.75743 0.04404,0.96 0.32881,1.44441c0.82202,1.39744 2.64221,1.89946 3.98974,1.09505c0.27009,-0.16147 2.36918,-2.17249 4.66204,-4.46827l4.16589,-4.17469l4.28919,4.27158c2.35744,2.34863 4.46534,4.36259 4.68259,4.47121c1.33285,0.6723 3.07084,0.13211 3.85176,-1.19487c0.28477,-0.48441 0.33174,-0.68698 0.32881,-1.44441c0,-0.62239 -0.06459,-1.0011 -0.21725,-1.29175c-0.11743,-0.22606 -2.14019,-2.33983 -4.48882,-4.7002l-4.27451,-4.28625l2.70386,-2.70093l2.70093,-2.69799l2.60111,-3.9046l2.60111,-3.9046l2.41616,-0.00587c2.60405,-0.00587 2.97102,-0.06752 3.7079,-0.6312c0.22606,-0.17028 0.55486,-0.56074 0.73395,-0.86312c0.2789,-0.47266 0.32587,-0.68404 0.32587,-1.4356c0,-0.74569 -0.04991,-0.96294 -0.31707,-1.42092c-0.38752,-0.65468 -0.99523,-1.13909 -1.70863,-1.3534c-0.76918,-0.23193 -36.23647,-0.22606 -36.97629,0.00587M1463.54571,658.02757c-1.17138,0.3611 -0.88661,-0.14973 -9.04811,16.19969c-6.26204,12.54464 -7.50975,15.12813 -7.55966,15.62722c-0.1233,1.29468 0.70753,2.60698 1.90826,3.01799c0.7222,0.24661 1.27413,0.24661 1.99634,0c1.08037,-0.36697 1.29468,-0.69872 4.11011,-6.35892l2.58056,-5.19048h6.99012h6.99012l2.58056,5.19048c2.81542,5.66021 3.02974,5.99195 4.11011,6.35892c0.7222,0.24661 1.27413,0.24661 1.99634,0c1.20074,-0.41101 2.03157,-1.72331 1.90826,-3.01799c-0.04991,-0.49908 -1.29762,-3.08258 -7.55966,-15.62722c-8.12921,-16.28483 -7.85618,-15.79749 -9.02756,-16.19676c-0.68698,-0.23486 -1.22129,-0.23486 -1.97579,-0.00294M1466.54902,671.4001c1.08331,2.16368 1.96698,3.96038 1.96698,3.99268c0,0.03229 -1.7967,0.05872 -3.99268,0.05872c-2.19597,0 -3.99268,-0.02642 -3.99268,-0.05872c0,-0.11743 3.93396,-7.92664 3.99268,-7.92664c0.03229,0 0.94532,1.77028 2.0257,3.93396"/></g></svg>