<svg xmlns="http://www.w3.org/2000/svg" viewBox="0 0 24 24"><g transform="translate(-0.0000,2.6749) scale(0.264696) translate(-1404.51,-625.541)"><path d="M1470.98297,630.12844c-0.74276,0.23486 -0.92771,0.39046 -2.35157,2.02276c-4.44772,5.09947 -7.83269,6.56736 -21.61623,9.36811c-5.91562,1.20074 -7.65654,1.7468 -10.16077,3.18533c-5.75121,3.3057 -9.72334,8.51673 -11.32335,14.84923c-0.98349,3.9046 -0.89248,8.36407 0.24954,12.24812l0.30826,1.04514l-1.13909,1.13028c-3.1002,3.0679 -4.84699,6.47635 -5.63965,11.00334c-0.25248,1.44147 -0.35523,3.8635 -0.18789,4.47415c0.18789,0.68698 0.73688,1.38863 1.38863,1.77028c0.48441,0.28477 0.68991,0.33174 1.45322,0.33174c0.78679,0 0.95707,-0.0411 1.4679,-0.35523c0.70753,-0.4345 1.30643,-1.28881 1.38569,-1.96698c0.02936,-0.27303 0.11156,-1.18312 0.17908,-2.02276c0.26422,-3.24992 1.2712,-5.81287 3.1824,-8.11159l0.64587,-0.77505l0.23486,0.32294c1.29468,1.78203 2.53946,3.14423 3.99268,4.36259c6.10938,5.12002 13.61326,6.79342 22.01843,4.90864c4.00735,-0.90129 8.41985,-2.89763 11.80188,-5.34901c2.22533,-1.61175 4.92039,-4.16002 6.63489,-6.27379c2.73322,-3.36735 4.99672,-7.80627 6.10938,-11.97509c0.84257,-3.15304 1.11266,-5.71305 1.01285,-9.52077c-0.17028,-6.52039 -1.19193,-11.67271 -3.39377,-17.14502c-0.7956,-1.97579 -2.3545,-5.39305 -2.83304,-6.2092c-0.7134,-1.21542 -2.07854,-1.74092 -3.4202,-1.31817M1471.74041,639.7226c1.56478,3.91341 2.41616,7.46865 2.84185,11.84885c0.22899,2.34863 0.19963,6.84333 -0.05284,8.44333c-1.189,7.51856 -5.55452,14.174 -12.11895,18.47787c-5.51929,3.61689 -12.40078,5.11121 -17.90833,3.88699c-2.20184,-0.48734 -4.58864,-1.55597 -6.4147,-2.86827c-1.69102,-1.21248 -4.43304,-4.09836 -4.22167,-4.43892c0.10862,-0.17615 2.0756,-0.78092 3.88405,-1.19487c3.57286,-0.81321 6.35599,-1.83487 9.80554,-3.58754c3.2646,-1.66166 5.77177,-3.29102 7.83269,-5.09066c1.42679,-1.24478 1.73799,-1.77322 1.73799,-2.94166c0,-0.74569 -0.04991,-0.96294 -0.31707,-1.42092c-0.38752,-0.65468 -0.99523,-1.13909 -1.70863,-1.3534c-1.20074,-0.3611 -1.98753,-0.10862 -3.31744,1.06863c-1.91707,1.69395 -4.16589,3.15598 -7.16333,4.65029c-3.06497,1.52661 -4.99378,2.21652 -8.51379,3.03561c-1.09799,0.25541 -2.62166,0.68404 -3.38497,0.9512c-0.76331,0.26716 -1.41212,0.46679 -1.43854,0.44037c-0.02642,-0.02642 -0.15266,-0.6723 -0.28184,-1.43267c-0.40514,-2.36331 -0.29651,-5.20222 0.28477,-7.4481c1.46496,-5.6514 5.79819,-10.29875 11.39674,-12.21876c0.58129,-0.19963 2.90643,-0.73395 5.16699,-1.189c9.62939,-1.94349 13.76886,-3.13836 17.48557,-5.04662c1.79964,-0.92477 4.28332,-2.68331 5.28736,-3.74607c0.19083,-0.19963 0.38165,-0.36404 0.42569,-0.36404c0.04404,0 0.35523,0.69285 0.69285,1.53835"/></g></svg>