<svg xmlns="http://www.w3.org/2000/svg" viewBox="0 0 24 24"><g transform="translate(-0.0000,2.6749) scale(0.264696) translate(-1404.51,-625.541)"><path d="M1461.70795,628.87927c-2.85946,0.47853 -5.55745,1.5912 -7.71232,3.18533c-0.9923,0.73395 -6.80516,6.31782 -7.24847,6.9637c-0.42275,0.61064 -0.54019,0.99817 -0.53725,1.75267c0.00587,1.61175 1.28294,2.8624 2.92405,2.8624c0.36404,0 0.86899,-0.08514 1.11854,-0.19083c0.30239,-0.12624 1.45615,-1.17725 3.45836,-3.15598c1.65285,-1.63524 3.34974,-3.21469 3.76956,-3.51121c2.1079,-1.49432 4.36846,-2.21065 6.9725,-2.20478c4.94974,0.00587 9.39747,3.21176 11.00334,7.92957c0.49321,1.44734 0.61652,2.43964 0.54606,4.3391c-0.04991,1.30936 -0.12624,1.85836 -0.37285,2.69506c-0.37285,1.25652 -1.14202,2.78019 -1.93469,3.8224c-0.31707,0.41982 -2.84185,3.01506 -5.60736,5.76589c-5.31965,5.2903 -5.82755,5.72186 -7.66829,6.52039c-1.68808,0.73101 -2.5424,0.90129 -4.58277,0.91303c-2.01102,0.01174 -2.8213,-0.12624 -4.43304,-0.76037c-1.7879,-0.70165 -3.41726,-1.88771 -4.69727,-3.41432c-0.91597,-1.09505 -1.48551,-1.47083 -2.38093,-1.57652c-2.13726,-0.24954 -3.79598,1.76147 -3.12075,3.78717c0.39633,1.20074 2.95928,3.80772 5.03195,5.12589c5.28149,3.35561 11.77839,3.68735 17.3975,0.88661c2.37505,-1.18312 2.97983,-1.69982 8.83086,-7.55085c3.83414,-3.83414 5.6191,-5.70131 6.12112,-6.40883c1.94349,-2.74203 3.05029,-5.74828 3.3057,-8.99233c0.24367,-3.07964 -0.27303,-5.95672 -1.58239,-8.83086c-2.21946,-4.87048 -6.96076,-8.62242 -12.35381,-9.77912c-1.50312,-0.32294 -4.79708,-0.41395 -6.24736,-0.17321M1441.50971,649.20375c-3.5846,0.50202 -6.71709,2.00221 -9.53839,4.56516c-2.41616,2.19304 -10.12261,10.07857 -10.85656,11.1061c-4.53873,6.35892 -4.4947,14.73474 0.10569,20.90283c1.70863,2.28992 4.28625,4.35378 6.88149,5.51342c2.29872,1.02459 4.03378,1.41505 6.65544,1.49432c2.93286,0.08807 4.98204,-0.28477 7.52443,-1.37101c2.53065,-1.07744 3.64625,-1.93175 7.49214,-5.74241c3.43194,-3.39965 3.71084,-3.76662 3.71084,-4.88516c0,-1.08624 -0.78973,-2.28111 -1.78496,-2.69506c-0.5578,-0.23193 -1.73505,-0.23486 -2.29285,0c-0.27596,0.1145 -1.51487,1.25065 -3.43194,3.14717c-1.64698,1.6323 -3.31157,3.20001 -3.69616,3.48185c-0.9512,0.69578 -2.48661,1.44734 -3.76368,1.83487c-0.98643,0.30239 -1.20074,0.32294 -3.17065,0.32294c-1.96404,0 -2.18716,-0.02349 -3.17065,-0.32c-3.80772,-1.15377 -6.72296,-3.93396 -7.96774,-7.59783c-0.45211,-1.32991 -0.58422,-2.41909 -0.51376,-4.28038c0.08807,-2.38093 0.64587,-4.08369 1.99634,-6.10645c0.51964,-0.77798 9.94646,-10.32518 11.01802,-11.15894c1.36221,-1.05982 2.98864,-1.84074 4.68552,-2.24882c0.64881,-0.1556 1.32991,-0.20844 2.5835,-0.20551c2.14606,0.00587 3.28221,0.26422 5.12296,1.16257c1.57946,0.77211 2.80662,1.72037 3.88112,3.00331c0.92477,1.10679 1.53542,1.51193 2.41028,1.60001c2.13432,0.22018 3.76956,-1.78496 3.1002,-3.79891c-0.41101,-1.24184 -3.05616,-3.90754 -5.14644,-5.18754c-3.66974,-2.24294 -7.72994,-3.11487 -11.83417,-2.53652"/></g></svg>