<svg xmlns="http://www.w3.org/2000/svg" viewBox="0 0 24 24"><g transform="translate(-0.0000,2.6749) scale(0.264696) translate(-1404.51,-625.541)"><path d="M1448.94967,628.63678c-0.6723,0.21138 -1.28881,0.71046 -1.66459,1.34753l-0.31707,0.54019v6.76113v6.76113l0.35523,0.57835c1.18019,1.91707 3.8635,1.91707 5.04369,0l0.35523,-0.57835v-6.76113v-6.76113l-0.31707,-0.54019c-0.71633,-1.21835 -2.11964,-1.76441 -3.45543,-1.34753M1427.66224,637.35021c-1.54716,0.77211 -2.05505,2.789 -1.06276,4.21286c0.49615,0.71046 9.15086,9.28004 9.62352,9.52664c0.29064,0.15266 0.66936,0.21725 1.29175,0.21725c0.75743,0.00294 0.96,-0.04404 1.44441,-0.32881c1.39744,-0.82202 1.89652,-2.64221 1.09505,-3.98974c-0.15853,-0.27009 -2.31634,-2.51304 -4.79121,-4.9791c-3.35561,-3.34387 -4.63561,-4.54754 -5.02901,-4.72369c-0.78092,-0.35229 -1.78496,-0.32587 -2.57175,0.06459M1469.45617,637.28562c-0.3934,0.17615 -1.6734,1.37982 -5.02901,4.72369c-2.47487,2.46606 -4.64149,4.72369 -4.8147,5.01433c-0.26716,0.44624 -0.31413,0.66349 -0.31413,1.40918c0,0.7545 0.04697,0.96 0.33174,1.44441c0.82202,1.39744 2.64221,1.89652 3.98974,1.09505c0.27009,-0.15853 2.51304,-2.31634 4.9791,-4.79121c3.47304,-3.48478 4.54167,-4.62387 4.72662,-5.04662c0.87193,-1.97579 -0.49321,-4.09836 -2.63047,-4.08956c-0.45798,0 -0.89835,0.08807 -1.2389,0.24073M1419.59176,657.99469c-0.6723,0.21138 -1.28881,0.71046 -1.66459,1.34753c-0.26716,0.45798 -0.31707,0.67523 -0.31707,1.42092c0,0.75156 0.04697,0.96294 0.32587,1.4356c0.36697,0.62532 0.93358,1.10092 1.58239,1.33285c0.64294,0.22899 13.03785,0.22899 13.68079,0c0.64881,-0.23193 1.21542,-0.70753 1.58239,-1.33285c0.2789,-0.47266 0.32587,-0.68404 0.32587,-1.4356c0,-0.74569 -0.04991,-0.96294 -0.31707,-1.42092c-0.38752,-0.65468 -0.99523,-1.13909 -1.70863,-1.3534c-0.7545,-0.22606 -12.76188,-0.22312 -13.48996,0.00587M1466.56441,657.99469c-0.6723,0.21138 -1.28881,0.71046 -1.66459,1.34753c-0.26716,0.45798 -0.31707,0.67523 -0.31707,1.42092c0,0.75156 0.04697,0.96294 0.32587,1.4356c0.36697,0.62532 0.93358,1.10092 1.58239,1.33285c0.64294,0.22899 13.03785,0.22899 13.68079,0c0.64881,-0.23193 1.21542,-0.70753 1.58239,-1.33285c0.2789,-0.47266 0.32587,-0.68404 0.32587,-1.4356c0,-0.74569 -0.04991,-0.96294 -0.31707,-1.42092c-0.38752,-0.65468 -0.99523,-1.13909 -1.70863,-1.3534c-0.7545,-0.22606 -12.76188,-0.22312 -13.48996,0.00587M1436.51659,670.35437c-0.53725,0.16147 -0.96881,0.5578 -5.09066,4.6591c-2.47487,2.46313 -4.64736,4.69139 -4.82644,4.94974c-1.18019,1.69982 -0.19083,4.13066 1.829,4.48882c0.77798,0.13798 1.62349,-0.02936 2.20184,-0.4345c0.7222,-0.50202 9.29178,-9.15673 9.54132,-9.63233c0.15266,-0.29064 0.21725,-0.66936 0.21725,-1.29175c0.00294,-0.74863 -0.04404,-0.96294 -0.31413,-1.42092c-0.38752,-0.65468 -0.99523,-1.13909 -1.70863,-1.3534c-0.66936,-0.20257 -1.10386,-0.19376 -1.84955,0.03523M1461.27999,670.32502c-0.6723,0.21138 -1.28881,0.71046 -1.66459,1.34753c-0.27009,0.45798 -0.31707,0.6723 -0.31413,1.42092c0,0.62239 0.06459,1.0011 0.21725,1.29175c0.24954,0.47266 8.81912,9.12737 9.53545,9.62939c0.92477,0.64881 2.34276,0.64294 3.29396,-0.00881c1.27413,-0.8778 1.62643,-2.77726 0.74863,-4.03378c-0.18202,-0.26422 -2.35744,-2.49542 -4.83231,-4.95855c-4.28625,-4.26277 -4.5358,-4.48882 -5.14057,-4.66791c-0.7545,-0.22312 -1.18606,-0.22606 -1.84368,-0.02055M1448.94967,675.60944c-0.6723,0.21138 -1.28881,0.71046 -1.66459,1.34753l-0.31707,0.54019v6.76113v6.76113l0.35523,0.57835c0.19963,0.32294 0.60184,0.74276 0.91303,0.95413c1.38276,0.92771 3.23524,0.50202 4.13066,-0.95413l0.35523,-0.57835v-6.76113v-6.76113l-0.31707,-0.54019c-0.71633,-1.21835 -2.11964,-1.76441 -3.45543,-1.34753"/></g></svg>