<svg xmlns="http://www.w3.org/2000/svg" viewBox="0 0 24 24"><g transform="translate(-0.0000,2.6749) scale(0.264696) translate(-1404.51,-625.541)"><path d="M1424.88792,634.48407c-3.28515,0.55486 -5.98314,2.95047 -7.00186,6.21507l-0.27596,0.88074v19.20007v19.20007l0.27596,0.88074c0.90422,2.89763 3.109,5.1024 6.00663,6.00663l0.88074,0.27596h25.07166h25.07166l0.88074,-0.27596c2.89763,-0.90422 5.1024,-3.109 6.00663,-6.00663l0.27596,-0.88074v-19.20007v-19.20007l-0.27596,-0.88074c-0.89542,-2.8712 -3.09432,-5.08479 -5.94498,-5.98608l-0.94239,-0.29651l-24.71936,-0.01761c-13.59565,-0.00881 -24.98652,0.02936 -25.30945,0.08514M1474.24151,640.40849c0.81909,0.24367 1.60294,1.02753 1.84661,1.84661c0.09982,0.32881 0.17615,0.97468 0.17615,1.42973l-0.00294,0.83083l-12.39491,7.86792c-6.81691,4.32736 -12.58867,7.97067 -12.82647,8.09985c-0.59303,0.31413 -1.7967,0.31413 -2.38973,0c-0.2378,-0.12917 -6.00956,-3.77249 -12.82647,-8.09985l-12.39491,-7.86792l-0.00294,-0.83083c0,-0.45505 0.07633,-1.10092 0.17615,-1.42973c0.23193,-0.78973 1.03046,-1.60588 1.7967,-1.84074c0.46973,-0.14385 3.98387,-0.17028 24.39642,-0.17615c21.0232,-0.00881 23.91789,0.01174 24.44633,0.17028M1434.87255,658.72783c6.25911,3.978 11.065,6.96076 11.60225,7.19562c2.15487,0.93652 4.58571,0.93652 6.74058,0c0.53725,-0.23486 5.46057,-3.28809 11.93986,-7.40994c6.06241,-3.85469 11.04445,-7.01067 11.06793,-7.01067c0.02349,0 0.04404,6.12112 0.04404,13.60446c0,14.76703 0.02349,14.22097 -0.64881,15.10171c-0.17908,0.23486 -0.56954,0.57248 -0.86606,0.74569l-0.54019,0.31707h-24.36707h-24.36707l-0.54019,-0.31707c-0.29651,-0.17321 -0.6811,-0.50496 -0.85432,-0.73101c-0.69285,-0.90716 -0.66055,-0.17028 -0.66055,-15.06648v-13.67785l0.38165,0.22606c0.20844,0.1233 5.19048,3.28515 11.06793,7.02241"/></g></svg>