<svg xmlns="http://www.w3.org/2000/svg" viewBox="0 0 24 24"><g transform="translate(-0.0000,2.6749) scale(0.264696) translate(-1404.51,-625.541)"><path d="M1447.13736,631.55697c-4.618,0.40807 -9.38572,2.07267 -13.32849,4.65323c-1.86423,1.21835 -3.05616,2.19597 -4.75892,3.89873c-5.77177,5.77764 -8.80737,13.46354 -8.53141,21.61329c0.20844,6.22094 2.16955,11.76665 5.9303,16.79272c1.16551,1.55597 3.73433,4.18057 5.18754,5.30497c4.23341,3.27047 8.76921,5.2169 14.0918,6.04773c1.89946,0.29651 6.32076,0.29651 8.22021,0c5.32552,-0.83083 9.87013,-2.78313 14.0918,-6.04773c1.28294,-0.9923 3.84295,-3.55231 4.83525,-4.83525c3.87524,-5.00846 6.00369,-10.72444 6.27966,-16.85731c0.06459,-1.38863 0.04404,-1.7468 -0.12624,-2.26056c-0.27596,-0.83083 -1.05395,-1.60294 -1.85836,-1.84074c-1.27413,-0.37872 -2.0257,-0.14385 -3.37616,1.05101c-3.17946,2.81836 -6.71709,4.20405 -10.745,4.20405c-5.85984,0 -11.15013,-3.18827 -13.89803,-8.36994c-1.20367,-2.26643 -1.77909,-4.64149 -1.77909,-7.33948c0,-4.17176 1.34166,-7.5626 4.32148,-10.91527c1.15377,-1.29762 1.38276,-2.55707 0.68404,-3.75194c-0.7956,-1.35634 -1.9112,-1.64404 -5.24039,-1.34753M1443.49698,638.27993c0,0.02349 -0.12624,0.32881 -0.2789,0.67523c-0.44624,1.01285 -1.09505,3.12662 -1.36221,4.43892c-1.03633,5.07892 -0.03523,10.82133 2.67157,15.33364c1.69982,2.83597 4.52993,5.66608 7.3659,7.3659c5.04956,3.02974 11.44078,3.87818 17.02172,2.26349c0.8778,-0.25541 2.46019,-0.82202 3.2646,-1.16844c0.29358,-0.12624 0.26716,0.09395 -0.1556,1.30643c-0.86312,2.47781 -2.43377,5.24039 -4.12185,7.26021c-2.24588,2.68625 -4.78534,4.67672 -7.87379,6.16516c-6.47048,3.12662 -13.90978,3.12662 -20.38026,0c-2.32221,-1.11854 -4.12479,-2.36625 -5.94498,-4.10717c-5.898,-5.64553 -8.43746,-13.63969 -6.87856,-21.6632c1.35927,-7.00186 6.11232,-13.17877 12.62097,-16.40226c1.83487,-0.90716 4.05139,-1.71157 4.05139,-1.4679"/></g></svg>