<svg xmlns="http://www.w3.org/2000/svg" viewBox="0 0 24 24"><g transform="translate(-0.0000,2.6749) scale(0.264696) translate(-1404.51,-625.541)"><path d="M1448.49713,628.60354c-0.88954,0.13798 -1.69689,0.4022 -2.58643,0.84844c-0.86312,0.43156 -21.09072,11.9839 -21.66614,12.37436c-0.56954,0.38459 -1.72331,1.52955 -2.11083,2.09615c-0.49908,0.72514 -1.00991,1.79964 -1.3123,2.76258l-0.27596,0.8778v13.21106v13.21106l0.27596,0.88074c0.69285,2.21946 1.99927,3.96332 3.83708,5.12589c1.26239,0.79854 20.48595,11.73142 21.36962,12.15124c1.40918,0.67523 2.24588,0.86312 3.81653,0.86312c1.57065,0 2.40735,-0.18789 3.81653,-0.86312c0.88367,-0.41982 20.10723,-11.3527 21.36962,-12.15124c1.40624,-0.88954 2.44551,-2.04625 3.1824,-3.54056c0.99523,-2.0257 0.93065,-0.91597 0.93065,-15.67712c0,-14.76116 0.06459,-13.65143 -0.93065,-15.67712c-0.56074,-1.13615 -1.16551,-1.91707 -2.14313,-2.76845c-0.60771,-0.52844 -20.97036,-12.2628 -22.58798,-13.01436c-0.41982,-0.1967 -1.0745,-0.4345 -1.45615,-0.53431c-0.89248,-0.23193 -2.62753,-0.31707 -3.52882,-0.17615M1450.6931,634.50741c0.4345,0.13798 19.57585,11.00628 19.57879,11.11784c0.00294,0.08807 -7.07819,4.11011 -7.23672,4.11011c-0.09395,0 -18.72741,-10.59233 -20.392,-11.59344c-0.12917,-0.07633 5.71599,-3.42313 6.32076,-3.62277c0.58129,-0.18789 1.1567,-0.19083 1.72918,-0.01174M1446.59767,647.16654c5.43415,3.10607 10.02866,5.73947 10.20775,5.8481l0.32587,0.20257l-3.64332,2.08441l-3.64625,2.08735l-10.21362,-5.85103c-5.61617,-3.22056 -10.21068,-5.88039 -10.21068,-5.91268c0.00294,-0.07339 7.06351,-4.1013 7.19856,-4.10717c0.05578,0 4.54754,2.53946 9.98169,5.64846M1442.88683,660.16916l4.02203,2.30753v11.71381c0,6.44406 -0.02642,11.71381 -0.05872,11.71381c-0.03229,0 -4.37433,-2.46606 -9.64995,-5.48112c-6.72883,-3.84295 -9.72334,-5.61617 -10.03747,-5.94204c-0.8367,-0.86312 -0.80441,-0.35523 -0.80441,-12.72372v-11.07087l6.25323,3.58754c3.44075,1.97285 8.06168,4.62681 10.27527,5.89507M1473.15777,673.40958c-0.1145,0.38459 -0.34055,0.77211 -0.62826,1.06863c-0.31707,0.32881 -3.29102,2.08735 -10.04041,5.94498c-5.27562,3.01506 -9.61765,5.48112 -9.64995,5.48112c-0.03229,0 -0.05872,-5.26974 -0.05872,-11.71381l0.00294,-11.71381l0.37872,-0.21725c1.46496,-0.84257 13.83051,-7.93838 16.64594,-9.55306l3.46423,-1.99047l0.02936,11.04445c0.02642,9.5149 0.00587,11.12958 -0.14385,11.64922"/></g></svg>