<svg xmlns="http://www.w3.org/2000/svg" viewBox="0 0 24 24"><g transform="translate(-0.0000,2.6749) scale(0.264696) translate(-1404.51,-625.541)"><path d="M1427.82371,631.54828c-3.28515,0.55486 -5.98314,2.95047 -7.00186,6.21507l-0.27596,0.88074v22.13586v22.13586l0.27596,0.88074c0.90422,2.89763 3.109,5.1024 6.00663,6.00663l0.88074,0.27596h22.13586h22.13586l0.88074,-0.27596c2.89763,-0.90422 5.1024,-3.109 6.00663,-6.00663l0.27596,-0.88074v-22.13586v-22.13586l-0.27596,-0.88074c-0.89542,-2.8712 -3.09432,-5.08479 -5.94498,-5.98608l-0.94239,-0.29651l-21.78357,-0.01761c-11.98096,-0.00881 -22.05073,0.02936 -22.37366,0.08514M1455.71666,660.78288v23.48633l-13.65143,-0.02936l-13.65143,-0.03229l-0.54019,-0.31707c-0.29651,-0.17321 -0.6811,-0.50496 -0.85432,-0.73101c-0.70165,-0.92184 -0.66055,0.50496 -0.66055,-22.31495c0,-23.53624 -0.07339,-21.69843 0.89248,-22.66137c0.92477,-0.92771 -0.02349,-0.87193 15.04886,-0.88074l13.41656,-0.00881v23.48926M1471.30571,637.4727c0.81909,0.24367 1.60294,1.02753 1.84661,1.84661c0.15853,0.52844 0.17908,3.12662 0.17908,21.46357c0,17.33878 -0.02642,20.95274 -0.16147,21.39898c-0.21431,0.7134 -0.69872,1.32111 -1.3534,1.70863l-0.54019,0.31707l-4.84406,0.03523l-4.84406,0.03229v-23.48926v-23.4922h4.55928c3.73726,0 4.66497,0.03229 5.15818,0.17908M1437.13311,649.21587c-0.65175,0.2378 -1.23303,0.72808 -1.5912,1.33578c-0.27009,0.45798 -0.31707,0.6723 -0.31413,1.42092c0,0.62532 0.06459,1.0011 0.21725,1.29175c0.12037,0.22606 1.80845,2.01102 3.75488,3.96332l3.53469,3.55231l-3.53469,3.55231c-1.94643,1.95524 -3.62864,3.73139 -3.73726,3.94864c-0.6723,1.33285 -0.13211,3.07084 1.19487,3.85176c0.48441,0.28477 0.68698,0.33174 1.44441,0.32881c0.62239,0 1.0011,-0.06459 1.29175,-0.21725c0.56367,-0.29651 9.68517,-9.39747 10.07857,-10.05508c0.26716,-0.44624 0.31413,-0.66349 0.31413,-1.40918c0,-0.74569 -0.04991,-0.96294 -0.31413,-1.40918c-0.17321,-0.29064 -2.44551,-2.64808 -5.04956,-5.23745c-4.2246,-4.20112 -4.79708,-4.7325 -5.31378,-4.90277c-0.68991,-0.23193 -1.37395,-0.23486 -1.97579,-0.01468"/></g></svg>