<svg xmlns="http://www.w3.org/2000/svg" viewBox="0 0 24 24"><g transform="translate(-0.0000,2.6749) scale(0.264696) translate(-1404.51,-625.541)"><path d="M1427.82371,631.54828c-3.28515,0.55486 -5.98314,2.95047 -7.00186,6.21507l-0.27596,0.88074v22.13586v22.13586l0.27596,0.88074c0.90422,2.89763 3.109,5.1024 6.00663,6.00663l0.88074,0.27596h22.13586h22.13586l0.88074,-0.27596c2.89763,-0.90422 5.1024,-3.109 6.00663,-6.00663l0.27596,-0.88074v-22.13586v-22.13586l-0.27596,-0.88074c-0.89542,-2.8712 -3.09432,-5.08479 -5.94498,-5.98608l-0.94239,-0.29651l-21.78357,-0.01761c-11.98096,-0.00881 -22.05073,0.02936 -22.37366,0.08514M1438.10192,660.78582v23.48926l-4.84406,-0.03229l-4.84406,-0.03523l-0.54019,-0.31707c-0.29651,-0.17321 -0.6811,-0.50496 -0.85432,-0.73101c-0.70165,-0.92184 -0.66055,0.50496 -0.66055,-22.31495c0,-23.53624 -0.07339,-21.69843 0.89248,-22.66137c0.85725,-0.85725 0.95413,-0.87193 6.24149,-0.88074l4.60919,-0.00881v23.4922M1471.30571,637.4727c0.81909,0.24367 1.60294,1.02753 1.84661,1.84661c0.15853,0.52844 0.17908,3.12662 0.17908,21.46357c0,17.33878 -0.02642,20.95274 -0.16147,21.39898c-0.21431,0.7134 -0.69872,1.32111 -1.3534,1.70863l-0.54019,0.31707l-13.65143,0.03229l-13.65143,0.02936v-23.48633v-23.48926h13.36666c11.6228,0 13.44299,0.02349 13.96556,0.17908M1460.53136,649.23935c-0.44624,0.15266 -1.26826,0.91597 -5.26387,4.89103c-2.60405,2.5923 -4.87635,4.94974 -5.04956,5.24039c-0.26422,0.44624 -0.31413,0.66349 -0.31413,1.40918c0,0.74569 0.04697,0.96294 0.31413,1.40918c0.3934,0.65762 9.52371,9.76738 10.06389,10.03747c1.33285,0.6723 3.07084,0.13211 3.85176,-1.19487c0.28477,-0.48441 0.33174,-0.68698 0.32881,-1.44441c0,-0.62532 -0.06459,-1.0011 -0.21725,-1.29175c-0.12037,-0.22606 -1.80845,-2.00808 -3.75488,-3.96332l-3.53469,-3.55231l3.53469,-3.55231c1.94643,-1.9523 3.63451,-3.73726 3.75488,-3.96332c0.15266,-0.29064 0.21725,-0.66642 0.21725,-1.29175c0.00294,-0.74863 -0.04404,-0.96294 -0.31413,-1.42092c-0.74863,-1.2712 -2.20478,-1.80258 -3.61689,-1.3123"/></g></svg>