<svg xmlns="http://www.w3.org/2000/svg" viewBox="0 0 24 24"><g transform="translate(-0.0000,2.6749) scale(0.264696) translate(-1404.51,-625.541)"><path d="M1469.19876,628.61466c-1.58826,0.24367 -3.67855,1.11266 -4.87341,2.02863c-1.18019,0.90422 -3.21469,2.91818 -21.82173,21.61036l-19.77842,19.86943l-0.53431,1.10973c-0.37578,0.78679 -1.12147,3.05616 -2.56588,7.80333c-1.95817,6.43232 -2.03744,6.73177 -2.0345,7.69177c0,1.26533 0.36991,2.14606 1.26826,3.02974c0.89835,0.88661 1.76735,1.24771 3.01506,1.25065c0.96294,0.00587 1.23597,-0.06752 7.69177,-2.03157c7.81214,-2.37799 8.28774,-2.57175 9.93472,-4.05139c0.60771,-0.54606 9.87894,-9.78206 20.60338,-20.52705c14.8962,-14.92263 19.6287,-19.72852 20.03677,-20.35677c1.45615,-2.22827 2.07854,-4.46534 1.94056,-6.9637c-0.26716,-4.90277 -3.67267,-9.00114 -8.51673,-10.25178c-1.06569,-0.27596 -3.25579,-0.38165 -4.36552,-0.21138M1472.04061,634.48918c1.47377,0.31413 2.92111,1.42386 3.59047,2.75671c0.81028,1.60881 0.80734,3.29689 -0.00294,4.92039c-0.27596,0.55486 -0.86899,1.22716 -2.80074,3.17065l-2.44845,2.46606l-3.79011,-3.79011l-3.79011,-3.79011l2.46606,-2.44845c2.57762,-2.55707 3.08552,-2.93873 4.34497,-3.25286c0.75743,-0.18495 1.64698,-0.19963 2.43083,-0.03229M1462.44644,648.214l3.75781,3.75781l-15.43639,15.43639c-10.7538,10.7538 -15.59786,15.52153 -15.9707,15.71823c-0.61064,0.32294 -10.43087,3.31744 -10.53655,3.21469c-0.07046,-0.07339 2.75964,-9.54132 3.09726,-10.35453c0.14679,-0.35229 4.04258,-4.32442 15.70061,-16.00006c8.53141,-8.54315 15.53621,-15.53033 15.57144,-15.53033c0.03229,0 1.74973,1.69102 3.81653,3.75781"/></g></svg>