<svg xmlns="http://www.w3.org/2000/svg" viewBox="0 0 24 24"><g transform="translate(-0.0000,2.6749) scale(0.264696) translate(-1404.51,-625.541)"><path d="M1448.94967,637.44772c-0.6723,0.21138 -1.28881,0.71046 -1.66459,1.34753l-0.31707,0.54019l-0.03229,9.24774l-0.03229,9.24774h-8.96297c-9.72334,0 -9.60004,-0.00881 -10.46022,0.64881c-0.23486,0.17908 -0.57248,0.56954 -0.74569,0.86606c-0.26716,0.45798 -0.31707,0.67523 -0.31707,1.42092c0,0.75156 0.04697,0.96294 0.32587,1.4356c0.36697,0.62532 0.93358,1.10092 1.58239,1.33285c0.35229,0.12624 2.24001,0.15853 9.50903,0.16147l9.06866,0.00587l0.03229,9.25655l0.03229,9.25655l0.35523,0.57835c1.18019,1.91707 3.8635,1.91707 5.04369,0l0.35523,-0.57835l0.03229,-9.25655l0.03229,-9.25655l9.06866,-0.00587c7.26902,-0.00294 9.15673,-0.03523 9.50903,-0.16147c0.64881,-0.23193 1.21542,-0.70753 1.58239,-1.33285c0.2789,-0.47266 0.32587,-0.68404 0.32587,-1.4356c0,-0.74569 -0.04991,-0.96294 -0.31707,-1.42092c-0.17321,-0.29651 -0.51083,-0.68698 -0.74569,-0.86606c-0.86019,-0.65762 -0.73688,-0.64881 -10.46022,-0.64881h-8.96297l-0.03229,-9.24774l-0.03229,-9.24774l-0.31707,-0.54019c-0.71633,-1.21835 -2.11964,-1.76441 -3.45543,-1.34753"/></g></svg>