<svg xmlns="http://www.w3.org/2000/svg" viewBox="0 0 24 24"><g transform="translate(-0.0000,2.6749) scale(0.264696) translate(-1404.51,-625.541)"><path d="M1447.148,631.52526c-5.62204,0.54019 -10.92114,2.65983 -15.50098,6.20039c-2.33395,1.80551 -5.24039,5.07892 -6.84039,7.70939c-2.70093,4.43598 -4.33616,10.06389 -4.30974,14.83749c0.00587,1.56478 0.42275,2.40735 1.49432,3.03854c0.4756,0.2789 0.68404,0.32587 1.44441,0.32587c0.78679,0 0.95707,-0.0411 1.4679,-0.35523c0.70459,-0.4345 1.30643,-1.28881 1.38569,-1.96698c0.03229,-0.27303 0.11156,-1.26239 0.17615,-2.19891c0.22312,-3.1824 0.93652,-5.86865 2.29285,-8.63123c2.3545,-4.79415 6.02131,-8.46095 10.81545,-10.81545c7.14278,-3.50827 15.77694,-3.1002 23.0489,1.09211c2.01982,1.16551 3.79598,2.54533 5.54277,4.31268l0.99523,1.00698h-3.94277c-4.28625,0 -4.64442,0.04404 -5.44002,0.64881c-0.23486,0.17908 -0.57248,0.56954 -0.74569,0.86606c-0.26716,0.45798 -0.31707,0.67523 -0.31707,1.42092c0,0.75156 0.04697,0.96294 0.32587,1.4356c0.36697,0.62532 0.93358,1.10092 1.58239,1.33285c0.35229,0.12624 2.04918,0.15853 8.367,0.16147l7.92664,0.00294l0.58716,-0.27303c0.69578,-0.32294 1.24771,-0.91303 1.51487,-1.62056c0.17615,-0.46092 0.19376,-1.30056 0.16147,-8.5549l-0.03229,-8.04407l-0.32,-0.54606c-1.15083,-1.95524 -3.96332,-1.95524 -5.11415,0l-0.32,0.54606l-0.03523,4.20405l-0.03523,4.20405l-1.35927,-1.29762c-2.81836,-2.69212 -5.06424,-4.27745 -8.3171,-5.87452c-3.1912,-1.56771 -5.95378,-2.43671 -9.37398,-2.94753c-1.7967,-0.27009 -5.44589,-0.38165 -7.12516,-0.22018M1475.37563,657.99141c-0.66642,0.20844 -1.28881,0.70753 -1.65285,1.32991c-0.27009,0.46385 -0.31413,0.70459 -0.40807,2.24001c-0.4022,6.6114 -2.77726,11.8694 -7.33067,16.22905c-4.90864,4.69727 -11.82243,7.05471 -18.57769,6.33544c-6.05067,-0.64587 -11.53179,-3.28809 -15.81511,-7.62131l-1.05395,-1.06569l4.04846,-0.00587c4.35378,-0.00587 4.54754,-0.02642 5.33727,-0.6312c0.22606,-0.17028 0.55486,-0.56074 0.73395,-0.86312c0.2789,-0.47266 0.32587,-0.68404 0.32587,-1.4356c0,-0.74569 -0.04991,-0.96294 -0.31707,-1.42092c-0.17321,-0.29651 -0.51083,-0.68698 -0.74569,-0.86606c-0.85432,-0.65175 -0.83376,-0.64881 -9.3182,-0.64881l-7.82095,0.00294l-0.58716,0.27303c-0.69578,0.32294 -1.24771,0.91303 -1.51487,1.62056c-0.17615,0.46092 -0.19376,1.30056 -0.16147,8.5637l0.03229,8.05287l0.35523,0.57835c1.18019,1.91707 3.8635,1.91707 5.04369,0l0.35523,-0.57835l0.03523,-4.21286l0.03523,-4.21286l1.42679,1.36808c0.78679,0.75156 1.85542,1.70863 2.37212,2.12551c4.43304,3.55524 9.60884,5.78057 15.56556,6.69654c1.91414,0.29358 6.34424,0.29358 8.22021,0c5.3314,-0.83376 9.87013,-2.78313 14.0918,-6.04773c1.28294,-0.9923 3.84295,-3.55231 4.83525,-4.83525c3.98974,-5.15818 6.22094,-11.32335 6.25323,-17.26245c0.00881,-1.77322 0,-1.83487 -0.30826,-2.36038c-0.71633,-1.21835 -2.11964,-1.76441 -3.45543,-1.34753"/></g></svg>