<svg xmlns="http://www.w3.org/2000/svg" viewBox="0 0 24 24"><g transform="translate(-0.0000,2.6749) scale(0.264696) translate(-1404.51,-625.541)"><path d="M1445.00133,631.46715c-3.85763,0.39927 -6.60259,1.14789 -9.62939,2.6246c-5.3314,2.60111 -9.45325,6.70535 -12.09839,12.04261c-3.67267,7.40406 -3.67267,15.96483 0,23.3689c1.36514,2.75377 2.81249,4.7824 4.938,6.91966c8.00884,8.04407 20.14833,10.09912 30.29443,5.12589c1.5501,-0.76037 3.22056,-1.77322 4.39781,-2.67157l0.52257,-0.39927l5.58387,5.5692c3.07084,3.06497 5.76296,5.66021 5.98021,5.76883c1.33578,0.6723 3.07084,0.13211 3.85176,-1.19487c0.28477,-0.48441 0.33174,-0.68698 0.32881,-1.44441c0,-0.62239 -0.06459,-1.0011 -0.21725,-1.29175c-0.11743,-0.22606 -2.72148,-2.92405 -5.78644,-5.99489l-5.5692,-5.58387l0.39927,-0.52257c0.89835,-1.17725 1.9112,-2.84772 2.67157,-4.39781c3.57873,-7.30131 3.57873,-15.82979 0.00294,-23.13403c-3.84882,-7.85618 -11.20885,-13.25216 -19.85769,-14.55859c-1.20074,-0.18202 -4.86754,-0.32294 -5.81287,-0.22606M1450.17419,637.55598c8.79857,1.32991 15.82098,8.47563 17.09218,17.38575c0.19376,1.35927 0.19376,4.39488 0,5.75415c-1.28294,9.00407 -8.21434,15.98245 -17.33291,17.45621c-1.21248,0.19376 -4.77653,0.19376 -5.98901,0c-9.1215,-1.47377 -16.04997,-8.45214 -17.33291,-17.45621c-0.32,-2.24001 -0.15853,-5.53984 0.37872,-7.75049c1.79083,-7.37471 7.68884,-13.27565 15.07529,-15.07529c0.83376,-0.20551 2.12551,-0.39927 3.52295,-0.53431c0.80147,-0.07633 3.48185,0.05284 4.58571,0.22018M1454.68944,649.21107c-0.44624,0.1556 -1.30349,0.95707 -5.60443,5.24039l-5.07598,5.05543l-2.14606,-2.11377c-1.80845,-1.78496 -2.23707,-2.149 -2.72441,-2.3134c-1.40331,-0.4756 -2.81836,0.04697 -3.56699,1.31817c-0.27009,0.45798 -0.31707,0.6723 -0.31413,1.42092c0,0.62532 0.06459,1.0011 0.21725,1.29175c0.29945,0.56661 6.46461,6.75232 7.11929,7.14278c0.44918,0.26716 0.66055,0.31413 1.40918,0.31119c0.62239,0 1.0011,-0.06459 1.29175,-0.21725c0.56367,-0.29358 12.62097,-12.33032 13.01436,-12.99088c0.26716,-0.44624 0.31413,-0.66349 0.31413,-1.40918c0,-0.74569 -0.04991,-0.96294 -0.31707,-1.42092c-0.74863,-1.2712 -2.20478,-1.79964 -3.61689,-1.31523"/></g></svg>