<svg xmlns="http://www.w3.org/2000/svg" viewBox="0 0 24 24"><g transform="translate(-0.0000,2.6749) scale(0.264696) translate(-1404.51,-625.541)"><path d="M1448.0194,628.52552c-0.12917,0.02936 -0.52551,0.10862 -0.88074,0.17908c-1.88478,0.37578 -4.03965,1.87303 -5.26974,3.6668c-0.93358,1.35634 -1.36221,2.7479 -1.48845,4.83525c-0.12037,1.98166 -0.45798,2.53946 -2.13432,3.52001c-1.0011,0.58716 -1.84074,0.82789 -2.47194,0.71046c-0.24073,-0.04404 -1.01872,-0.36404 -1.72918,-0.71046c-1.64111,-0.80147 -2.50129,-1.02459 -3.99268,-1.0334c-1.53248,-0.00587 -2.76552,0.27009 -4.16882,0.94239c-0.96588,0.46092 -1.25652,0.67817 -2.17249,1.60588c-2.3046,2.33689 -3.59928,5.63085 -3.23818,8.23196c0.4022,2.88588 1.73212,5.04369 4.00148,6.4881c1.89065,1.20661 2.22827,1.77028 2.22827,3.73139c0,0.71046 -0.04991,1.47964 -0.1145,1.71157c-0.17321,0.62532 -0.83376,1.31817 -1.9523,2.04625c-0.54899,0.35817 -1.26239,0.89542 -1.58239,1.1978c-1.83781,1.71744 -2.91818,4.78828 -2.57175,7.31306c0.18202,1.34166 0.56954,2.40148 1.43267,3.91928c0.98643,1.74386 2.40735,3.21176 3.79598,3.92222c1.38276,0.70753 2.65102,1.01578 4.2246,1.01872c1.57946,0.00294 2.36038,-0.19083 4.05139,-1.00991c1.4356,-0.69285 1.95817,-0.82202 2.74203,-0.67523c0.67817,0.12624 2.16074,0.94239 2.74496,1.509c0.61945,0.60184 0.81615,1.17432 0.90716,2.65102c0.04404,0.71046 0.15266,1.62056 0.24661,2.02276c0.59009,2.58937 2.71561,5.07011 5.21103,6.08589c2.14606,0.87193 5.8569,0.87193 8.00297,0c2.49542,-1.01578 4.62094,-3.49653 5.21103,-6.08589c0.09395,-0.4022 0.20257,-1.3123 0.24661,-2.02276c0.09101,-1.4767 0.28771,-2.04918 0.90716,-2.65102c0.58422,-0.56661 2.0668,-1.38276 2.74496,-1.509c0.78386,-0.14679 1.30643,-0.01761 2.74203,0.67523c1.69102,0.81909 2.47194,1.01285 4.05139,1.00991c3.04735,-0.00881 5.77177,-1.45028 7.37471,-3.90754c1.83193,-2.80955 2.4279,-4.91745 2.03744,-7.21617c-0.45798,-2.70974 -1.75854,-4.75892 -3.89579,-6.12993c-0.38459,-0.24954 -0.86606,-0.5578 -1.06863,-0.68698c-0.19963,-0.12917 -0.54312,-0.49615 -0.76331,-0.81909c-0.38752,-0.56954 -0.39633,-0.60771 -0.43743,-2.00808c-0.02349,-0.80734 0.01468,-1.6323 0.08807,-1.90533c0.17615,-0.65468 0.90129,-1.44147 1.8701,-2.0257c2.49836,-1.509 3.95157,-3.86057 4.30387,-6.95782c0.09688,-0.85138 -0.10862,-2.35157 -0.46679,-3.41139c-0.15266,-0.45211 -0.61358,-1.41212 -1.02166,-2.13138c-0.57542,-1.01872 -0.97468,-1.5501 -1.7967,-2.38093c-0.91597,-0.92771 -1.20661,-1.14496 -2.17249,-1.60588c-1.40331,-0.6723 -2.63634,-0.94826 -4.16882,-0.94239c-1.49138,0.00881 -2.35157,0.23193 -3.99268,1.0334c-0.71046,0.34642 -1.48845,0.66642 -1.72918,0.71046c-0.6312,0.11743 -1.47083,-0.1233 -2.47194,-0.71046c-1.67634,-0.98055 -2.01395,-1.53835 -2.13432,-3.52001c-0.09688,-1.56478 -0.29945,-2.50423 -0.76331,-3.53176c-1.07156,-2.36038 -3.24698,-4.21873 -5.78644,-4.94387c-0.60184,-0.17028 -4.19525,-0.32881 -4.72956,-0.20551M1451.77721,634.64665c0.25835,0.13798 0.60771,0.39927 0.77798,0.58129c0.64881,0.70459 0.71633,0.91597 0.86606,2.66863c0.1644,1.92294 0.50496,3.12662 1.21542,4.30387c0.93945,1.55303 1.77615,2.33689 3.76662,3.54056c3.22937,1.94643 5.95378,2.08735 9.32994,0.48441c1.189,-0.56661 1.48845,-0.66055 2.05505,-0.65762c1.32991,0.00881 2.24294,0.71633 3.1002,2.39561c0.52844,1.04221 0.59009,1.92881 0.19376,2.80368c-0.32587,0.71927 -0.46973,0.85725 -1.76735,1.7145c-1.56184,1.03046 -2.54533,2.11964 -3.27928,3.62864c-0.75156,1.53835 -0.93358,2.44845 -0.93358,4.64149c0,2.19304 0.18202,3.10313 0.93358,4.64149c0.73688,1.5178 1.7145,2.59818 3.29983,3.64038c1.61175,1.06276 1.99047,1.61175 1.99047,2.87708c0,0.56954 -0.08514,0.84844 -0.52551,1.72918c-0.65175,1.30056 -1.28881,1.93175 -2.22827,2.20478c-0.88367,0.25835 -1.38863,0.15853 -2.80955,-0.55486c-1.57065,-0.78679 -2.61873,-1.04514 -4.24222,-1.04514c-1.57358,0 -2.67157,0.25835 -4.06607,0.95707c-2.25175,1.12734 -3.56699,2.19891 -4.57396,3.72845c-0.93945,1.42386 -1.33578,2.70093 -1.46202,4.7325c-0.09395,1.50019 -0.20551,1.86423 -0.77505,2.5101c-0.65762,0.75156 -1.3534,0.99817 -2.80368,0.99817c-1.45615,0 -2.13432,-0.24367 -2.83304,-1.01872c-0.53431,-0.59597 -0.65175,-0.97468 -0.74569,-2.44258c-0.13211,-2.04331 -0.54019,-3.38497 -1.46202,-4.77947c-1.00698,-1.52955 -2.32221,-2.60111 -4.57396,-3.72845c-1.3945,-0.69872 -2.49249,-0.95707 -4.06607,-0.95707c-1.64111,0 -2.67451,0.25835 -4.30093,1.07744c-1.05395,0.53431 -1.3123,0.61652 -1.92294,0.62239c-1.3123,0.01174 -2.09909,-0.54606 -2.99157,-2.11377c-0.62239,-1.10092 -0.75743,-2.0345 -0.41982,-2.91818c0.29358,-0.77211 0.5578,-1.04514 1.82019,-1.87891c1.86129,-1.22716 3.03267,-2.67744 3.74607,-4.64149c0.39046,-1.07744 0.48734,-1.81138 0.48734,-3.68735c0,-2.04625 -0.19963,-3.07671 -0.86606,-4.47415c-0.76037,-1.59707 -1.74973,-2.6657 -3.61396,-3.91047c-1.00991,-0.67523 -1.29175,-0.98349 -1.57358,-1.72918c-0.33762,-0.88367 -0.20257,-1.81725 0.41982,-2.91818c0.62532,-1.09799 1.04808,-1.54716 1.75854,-1.8701c0.9512,-0.42863 1.64111,-0.33762 3.24405,0.42275c3.37616,1.60294 6.10057,1.46202 9.32994,-0.48441c1.99634,-1.20661 2.82423,-1.98459 3.77543,-3.55524c0.65175,-1.08331 1.02753,-2.37505 1.16551,-4.03965c0.14973,-1.81725 0.25835,-2.20478 0.77211,-2.77432c0.77798,-0.86019 1.32991,-1.04514 3.0268,-1.00404c1.04808,0.02642 1.37982,0.07633 1.76147,0.2789M1447.95481,649.18762c-3.31157,0.5167 -6.50278,2.68038 -8.18792,5.55452c-3.6668,6.25323 -0.98643,14.18574 5.70424,16.88373c6.00663,2.41909 12.81473,-0.48734 15.24263,-6.50571c1.13322,-2.81249 1.13322,-5.92736 0.00294,-8.72517c-1.56478,-3.87231 -5.00259,-6.59672 -9.10095,-7.21617c-1.3534,-0.20257 -2.31634,-0.19963 -3.66093,0.00881M1451.37501,655.09443c2.16955,0.56661 3.89579,2.49836 4.23928,4.74717c0.29358,1.91707 -0.27596,3.64919 -1.65579,5.03195c-1.17725,1.18312 -2.51304,1.74973 -4.11891,1.74973c-1.51193,0 -2.82423,-0.52257 -3.95451,-1.57065c-3.9046,-3.62864 -1.36221,-10.15784 3.95451,-10.15784c0.41982,0 1.10973,0.09101 1.53542,0.19963"/></g></svg>