<svg xmlns="http://www.w3.org/2000/svg" viewBox="0 0 24 24"><g transform="translate(-0.0000,2.6749) scale(0.264696) translate(-1404.51,-625.541)"><path d="M1448.67887,628.59959c-1.21248,0.20257 -2.3134,0.82202 -4.06313,2.28405c-3.14423,2.63047 -8.45508,5.26094 -12.19528,6.04186c-0.6312,0.13211 -1.87303,0.28771 -2.75671,0.34642c-1.86129,0.12037 -2.53359,0.29651 -3.49359,0.9189c-1.32404,0.85725 -2.33689,2.28698 -2.6334,3.72845c-0.08807,0.41982 -0.1145,4.38314 -0.08514,12.75014c0.04404,13.05253 0.02642,12.65913 0.67523,15.65364c1.86129,8.57545 8.02058,15.454 17.94355,20.02797c2.0257,0.93358 4.05726,1.74973 5.7747,2.31634c1.10973,0.36697 1.33285,0.4022 2.2312,0.35817c0.66936,-0.03523 1.30643,-0.1556 1.93762,-0.37285c4.38607,-1.49725 9.2771,-3.94277 12.44775,-6.21801c3.27341,-2.34863 6.03011,-5.22277 7.88847,-8.21728c1.41212,-2.27524 2.64515,-5.31672 3.20588,-7.89434c0.64881,-2.99451 0.6312,-2.60111 0.67523,-15.62722c0.04697,-13.16996 0.05578,-12.92922 -0.60184,-14.22684c-0.62239,-1.22716 -2.13726,-2.51891 -3.40845,-2.90937c-0.32881,-0.09982 -1.31817,-0.23193 -2.20184,-0.28771c-2.82423,-0.18789 -5.31965,-0.87487 -8.33471,-2.29579c-2.60992,-1.2301 -4.80002,-2.60111 -6.91085,-4.32736c-1.35046,-1.10386 -1.66166,-1.31523 -2.4279,-1.63817c-1.17432,-0.49321 -2.36331,-0.62532 -3.6668,-0.41101M1450.66933,634.88511c5.35488,4.57103 12.72959,7.84443 18.5131,8.21728l1.22422,0.07927l-0.04697,11.52004c-0.04991,12.51234 -0.03523,12.24812 -0.73395,15.01657c-1.18019,4.68552 -4.16882,8.81912 -8.69875,12.03087c-2.57762,1.83193 -6.06828,3.59634 -10.03453,5.07305l-1.00404,0.37578l-1.40331,-0.52551c-5.49286,-2.04625 -9.67343,-4.48002 -12.70023,-7.39526c-3.92809,-3.78423 -5.93323,-8.03526 -6.3736,-13.51345c-0.07046,-0.89248 -0.12037,-5.83635 -0.12037,-12.04849v-10.53362l1.25358,-0.0822c5.71305,-0.36991 13.15528,-3.68148 18.46906,-8.21434c0.34936,-0.29945 0.7222,-0.54606 0.82789,-0.54606c0.10569,0 0.47853,0.24661 0.82789,0.54606M1457.59193,652.15344c-0.44624,0.1556 -1.30349,0.95707 -5.60443,5.24039l-5.07598,5.05543l-2.15487,-2.12551c-1.9523,-1.92588 -2.21065,-2.14019 -2.78313,-2.31047c-0.77211,-0.22899 -1.09799,-0.23486 -1.79083,-0.02642c-0.7134,0.21431 -1.32111,0.69872 -1.70863,1.3534c-0.27009,0.45798 -0.31707,0.6723 -0.31413,1.42092c0,0.62532 0.06459,1.0011 0.21725,1.29175c0.29945,0.56661 6.46461,6.75232 7.11929,7.14278c0.44918,0.26716 0.66055,0.31413 1.40918,0.31119c0.62239,0 1.0011,-0.06459 1.29175,-0.21725c0.56367,-0.29358 12.62097,-12.33032 13.01436,-12.99088c0.26716,-0.44624 0.31413,-0.66349 0.31413,-1.40918c0,-0.74569 -0.04991,-0.96294 -0.31707,-1.42092c-0.74863,-1.2712 -2.20478,-1.79964 -3.61689,-1.31523"/></g></svg>