<svg xmlns="http://www.w3.org/2000/svg" viewBox="0 0 24 24"><g transform="translate(-0.0000,2.6749) scale(0.264696) translate(-1404.51,-625.541)"><path d="M1427.8016,631.56673c-3.27634,0.54899 -5.98314,2.95047 -7.00186,6.21507l-0.27596,0.88074v22.13586v22.13586l0.27596,0.88074c0.90422,2.89763 3.109,5.1024 6.00663,6.00663l0.88074,0.27596h22.13586h22.13586l0.88074,-0.27596c2.89763,-0.90422 5.1024,-3.109 6.00663,-6.00663l0.27596,-0.88074v-10.04041v-10.04041l-0.32,-0.54606c-1.15083,-1.95524 -3.96332,-1.95524 -5.11415,0l-0.32,0.54606l-0.05872,9.62939c-0.04404,7.34828 -0.09395,9.70866 -0.20551,9.96114c-0.25835,0.58422 -0.75743,1.13909 -1.30936,1.46496l-0.54019,0.31707h-21.43127h-21.43127l-0.54019,-0.31707c-0.29651,-0.17321 -0.6811,-0.50496 -0.85432,-0.73101c-0.70165,-0.92184 -0.66055,0.50496 -0.66055,-22.31495c0,-23.5333 -0.07339,-21.69843 0.88954,-22.66137c0.92477,-0.92477 0.49321,-0.88954 10.96224,-0.89542c7.40113,-0.00294 9.31526,-0.03523 9.66756,-0.16147c0.64881,-0.23193 1.21542,-0.70753 1.58239,-1.33285c0.2789,-0.47266 0.32587,-0.68404 0.32587,-1.4356c0,-0.74569 -0.04991,-0.96294 -0.31707,-1.42092c-0.17321,-0.29651 -0.51083,-0.68698 -0.74569,-0.86606c-0.86606,-0.66055 -0.69285,-0.64881 -10.90353,-0.63413c-5.17286,0.00587 -9.67343,0.05872 -9.99637,0.11156M1457.73493,631.60783c-0.6723,0.21138 -1.28881,0.71046 -1.66459,1.34753c-0.26716,0.45798 -0.31707,0.67523 -0.31707,1.42092c0,0.75156 0.04697,0.96294 0.32587,1.4356c0.36697,0.62532 0.93358,1.10092 1.58239,1.33285c0.34349,0.1233 1.65579,0.15853 5.95966,0.16147l5.51635,0.00587l-10.87711,10.89178c-5.98314,5.99195 -10.97692,11.07674 -11.09435,11.3028c-0.15266,0.29064 -0.21725,0.66936 -0.21725,1.29175c-0.00294,0.75743 0.04404,0.96 0.32881,1.44441c0.38165,0.65175 1.08331,1.20074 1.77028,1.38863c0.59303,0.15853 1.55597,0.07046 2.08148,-0.19376c0.21725,-0.10862 5.29617,-5.09066 11.28518,-11.07087l10.88591,-10.87417l0.03523,5.69837l0.03229,5.69837l0.35523,0.57835c1.18019,1.91707 3.8635,1.91707 5.04369,0l0.35523,-0.57835l0.03229,-9.52077c0.02936,-8.62242 0.01468,-9.56774 -0.16147,-10.0316c-0.26716,-0.70753 -0.81909,-1.29762 -1.51487,-1.62056l-0.58716,-0.27303l-9.33582,0.00587c-7.28957,0.00587 -9.4415,0.0411 -9.82022,0.15853"/></g></svg>