<svg xmlns="http://www.w3.org/2000/svg" viewBox="0 0 24 24"><g transform="translate(-0.0000,2.6749) scale(0.264696) translate(-1404.51,-625.541)"><path d="M1448.94967,628.64035c-0.6723,0.21138 -1.28881,0.71046 -1.66459,1.34753l-0.31707,0.54019v3.82534v3.82534l0.35523,0.57835c1.18019,1.91707 3.8635,1.91707 5.04369,0l0.35523,-0.57835v-3.82534v-3.82534l-0.31707,-0.54019c-0.71633,-1.21835 -2.11964,-1.76441 -3.45543,-1.34753M1427.66224,637.35378c-0.7545,0.37578 -1.3534,1.14789 -1.51193,1.94937c-0.13798,0.69872 0.01761,1.64991 0.35229,2.14313c0.3611,0.52844 4.41837,4.60626 4.97323,4.99378c1.28294,0.89835 3.20001,0.51964 4.07488,-0.80441c0.61064,-0.92477 0.5989,-2.33689 -0.03229,-3.23818c-0.62239,-0.89542 -4.71488,-4.84993 -5.28442,-5.10828c-0.77798,-0.35229 -1.78203,-0.32587 -2.57175,0.06459M1469.45617,637.28919c-0.56661,0.25835 -4.66497,4.2158 -5.27855,5.09947c-1.18019,1.69689 -0.19083,4.13066 1.829,4.48882c0.77798,0.13798 1.62349,-0.02642 2.20184,-0.43156c0.26716,-0.18495 1.47377,-1.33285 2.68038,-2.5512c1.58239,-1.59413 2.26349,-2.36625 2.43671,-2.75671c0.87193,-1.97285 -0.49321,-4.09836 -2.63047,-4.08956c-0.45798,0 -0.89835,0.08807 -1.2389,0.24073M1448.08361,646.21693c-4.81176,0.54312 -9.21545,3.658 -11.37325,8.047c-1.08037,2.19597 -1.48551,3.96625 -1.48551,6.50278c0,1.96698 0.17028,3.06497 0.72808,4.69727c1.69689,4.96442 5.82755,8.58719 11.0738,9.70866c1.38276,0.29651 4.25396,0.29651 5.63672,0c4.48589,-0.96 8.18499,-3.74901 10.196,-7.68884c1.08624,-2.13138 1.59413,-4.08956 1.60001,-6.19158c0.00587,-1.15964 -0.02349,-1.3534 -0.29358,-1.87597c-0.78679,-1.53248 -2.80662,-2.04037 -4.18937,-1.05395c-1.4679,1.04514 -1.89652,1.29175 -2.60992,1.48845c-3.76662,1.04221 -7.37764,-2.19597 -6.72003,-6.02718c0.1644,-0.96294 0.53725,-1.74386 1.32111,-2.76552c0.31413,-0.41101 0.6312,-0.96881 0.70459,-1.24478c0.29945,-1.10679 -0.12917,-2.40148 -1.01872,-3.08258c-0.83376,-0.63413 -1.56184,-0.73982 -3.56992,-0.51376M1444.71332,655.15935c0.0411,0.79266 0.1556,1.7556 0.25835,2.14313c1.13322,4.25103 4.08662,7.20443 8.33765,8.33765c0.38752,0.10275 1.35046,0.21725 2.14313,0.25835c0.79266,0.03817 1.43854,0.10275 1.43854,0.14092c0,0.12624 -1.17432,1.29762 -1.79083,1.78496c-0.76331,0.60184 -1.6734,1.06569 -2.79194,1.41505c-1.26826,0.39633 -3.65506,0.39633 -4.92919,0c-2.87414,-0.89542 -5.11708,-3.12662 -5.97433,-5.94498c-0.40514,-1.33872 -0.42275,-3.57579 -0.03523,-4.93506c0.29945,-1.04808 0.88954,-2.20478 1.52074,-2.97983c0.46092,-0.56367 1.57065,-1.65872 1.68221,-1.65872c0.03817,0 0.10275,0.64587 0.14092,1.43854M1419.59176,657.99826c-0.6723,0.21138 -1.28881,0.71046 -1.66459,1.34753c-0.26716,0.45798 -0.31707,0.67523 -0.31707,1.42092c0,0.75156 0.04697,0.96294 0.32587,1.4356c0.36697,0.62532 0.93358,1.10092 1.58239,1.33285c0.6312,0.22606 7.17801,0.22606 7.8092,0c0.64881,-0.23193 1.21542,-0.70753 1.58239,-1.33285c0.2789,-0.47266 0.32587,-0.68404 0.32587,-1.4356c0,-0.74569 -0.04991,-0.96294 -0.31707,-1.42092c-0.38752,-0.65468 -0.99523,-1.13909 -1.70863,-1.3534c-0.73688,-0.22312 -6.90792,-0.21725 -7.61838,0.00587M1472.43599,657.99826c-0.6723,0.21138 -1.28881,0.71046 -1.66459,1.34753c-0.26716,0.45798 -0.31707,0.67523 -0.31707,1.42092c0,0.75156 0.04697,0.96294 0.32587,1.4356c0.36697,0.62532 0.93358,1.10092 1.58239,1.33285c0.6312,0.22606 7.17801,0.22606 7.8092,0c0.64881,-0.23193 1.21542,-0.70753 1.58239,-1.33285c0.2789,-0.47266 0.32587,-0.68404 0.32587,-1.4356c0,-0.74569 -0.04991,-0.96294 -0.31707,-1.42092c-0.38752,-0.65468 -0.99523,-1.13909 -1.70863,-1.3534c-0.73688,-0.22312 -6.90792,-0.21725 -7.61838,0.00587M1431.87804,674.86732c-0.56661,0.25835 -4.66497,4.2158 -5.27855,5.09947c-1.18019,1.69689 -0.19083,4.13066 1.829,4.48882c0.77798,0.13798 1.62349,-0.02936 2.20184,-0.4345c0.5578,-0.39046 4.618,-4.46534 4.9791,-4.99672c0.57542,-0.84844 0.50202,-2.32808 -0.1644,-3.26166c-0.74569,-1.04808 -2.34276,-1.45028 -3.56699,-0.89542M1465.24037,674.9319c-1.47964,0.73688 -2.04918,2.76552 -1.15377,4.09543c0.35229,0.52257 4.41249,4.60332 4.96736,4.99084c0.92477,0.64881 2.34276,0.64294 3.29396,-0.00881c1.27413,-0.8778 1.62643,-2.77726 0.74863,-4.03378c-0.62239,-0.89542 -4.71488,-4.84993 -5.28442,-5.10828c-0.77798,-0.35229 -1.78203,-0.32587 -2.57175,0.06459M1448.94967,681.48459c-0.6723,0.21138 -1.28881,0.71046 -1.66459,1.34753l-0.31707,0.54019v3.82534v3.82534l0.35523,0.57835c1.18019,1.91707 3.8635,1.91707 5.04369,0l0.35523,-0.57835v-3.82534v-3.82534l-0.31707,-0.54019c-0.71633,-1.21835 -2.11964,-1.76441 -3.45543,-1.34753"/></g></svg>