<svg xmlns="http://www.w3.org/2000/svg" viewBox="0 0 24 24"><g transform="translate(-0.0000,2.6749) scale(0.264696) translate(-1404.51,-625.541)"><path d="M1448.94967,628.64035c-0.6723,0.21138 -1.28881,0.71046 -1.66459,1.34753l-0.31707,0.54019v3.82534v3.82534l0.35523,0.57835c1.18019,1.91707 3.8635,1.91707 5.04369,0l0.35523,-0.57835v-3.82534v-3.82534l-0.31707,-0.54019c-0.71633,-1.21835 -2.11964,-1.76441 -3.45543,-1.34753M1428.64867,637.12479c-1.15377,0.26422 -1.91707,0.89248 -2.28698,1.87303c-0.28771,0.77211 -0.29651,1.09799 -0.04991,1.92588c0.17028,0.57835 0.38752,0.83376 2.49542,2.96808c1.26826,1.28588 2.52184,2.48661 2.78607,2.66863c0.93065,0.64587 2.3457,0.64 3.29396,-0.01174c1.27413,-0.8778 1.62643,-2.77432 0.75156,-4.03378c-0.5167,-0.74569 -4.82644,-4.93506 -5.28736,-5.14057c-0.45505,-0.20257 -1.33872,-0.33468 -1.70276,-0.24954M1469.95231,637.16882c-0.27596,0.05578 -0.6723,0.21725 -0.88074,0.35817c-0.54606,0.36991 -4.62094,4.4213 -5.0114,4.9791c-1.18312,1.69395 -0.19083,4.13066 1.829,4.48882c0.77505,0.13798 1.62056,-0.02642 2.20184,-0.43156c0.26716,-0.18202 1.52368,-1.38569 2.79194,-2.67157c2.1079,-2.13432 2.32515,-2.38973 2.49542,-2.96808c0.23193,-0.78679 0.23486,-0.98055 0.00587,-1.74973c-0.42863,-1.43854 -1.92294,-2.31047 -3.43194,-2.00515M1448.08361,646.21693c-4.81176,0.54312 -9.21545,3.658 -11.37325,8.047c-1.08037,2.19597 -1.48551,3.96625 -1.48551,6.50278c0,1.96698 0.17028,3.06497 0.72808,4.69727c1.69689,4.96442 5.82755,8.58719 11.0738,9.70866c1.38276,0.29651 4.25396,0.29651 5.63672,0c4.48589,-0.96 8.18499,-3.74901 10.196,-7.68884c1.189,-2.33102 1.60588,-4.07781 1.60588,-6.71709c0,-2.63928 -0.41688,-4.38607 -1.60588,-6.71415c-1.87597,-3.67561 -5.36956,-6.46755 -9.37398,-7.4892c-1.67634,-0.42863 -3.5846,-0.55193 -5.40186,-0.34642M1452.3728,652.33806c2.76845,0.81028 5.05837,3.09432 5.91268,5.90094c0.24367,0.80147 0.28771,1.18312 0.28771,2.52772c0,1.34459 -0.04404,1.72625 -0.28771,2.52772c-0.86019,2.8213 -3.1002,5.04956 -5.97433,5.94498c-1.27413,0.39633 -3.658,0.39633 -4.93213,0c-2.87414,-0.89542 -5.11415,-3.12368 -5.97433,-5.94498c-0.24367,-0.80147 -0.28771,-1.18312 -0.28771,-2.52772c0,-1.34459 0.04404,-1.72625 0.28771,-2.52772c0.97175,-3.18533 3.658,-5.56039 6.96957,-6.16223c0.97762,-0.17615 2.93873,-0.04991 3.99855,0.26129M1419.59176,657.99826c-0.6723,0.21138 -1.28881,0.71046 -1.66459,1.34753c-0.26716,0.45798 -0.31707,0.67523 -0.31707,1.42092c0,0.75156 0.04697,0.96294 0.32587,1.4356c0.36697,0.62532 0.93358,1.10092 1.58239,1.33285c0.6312,0.22606 7.17801,0.22606 7.8092,0c0.64881,-0.23193 1.21542,-0.70753 1.58239,-1.33285c0.2789,-0.47266 0.32587,-0.68404 0.32587,-1.4356c0,-0.74569 -0.04991,-0.96294 -0.31707,-1.42092c-0.38752,-0.65468 -0.99523,-1.13909 -1.70863,-1.3534c-0.73688,-0.22312 -6.90792,-0.21725 -7.61838,0.00587M1472.43599,657.99826c-0.6723,0.21138 -1.28881,0.71046 -1.66459,1.34753c-0.26716,0.45798 -0.31707,0.67523 -0.31707,1.42092c0,0.75156 0.04697,0.96294 0.32587,1.4356c0.36697,0.62532 0.93358,1.10092 1.58239,1.33285c0.6312,0.22606 7.17801,0.22606 7.8092,0c0.64881,-0.23193 1.21542,-0.70753 1.58239,-1.33285c0.2789,-0.47266 0.32587,-0.68404 0.32587,-1.4356c0,-0.74569 -0.04991,-0.96294 -0.31707,-1.42092c-0.38752,-0.65468 -0.99523,-1.13909 -1.70863,-1.3534c-0.73688,-0.22312 -6.90792,-0.21725 -7.61838,0.00587M1431.92208,674.79979c-0.42275,0.21138 -1.27413,0.98643 -3.00625,2.73616c-2.21946,2.24001 -2.43083,2.49249 -2.60405,3.07377c-0.24661,0.82789 -0.2378,1.15377 0.04991,1.92588c0.31119,0.83083 1.04514,1.5178 1.88478,1.76735c0.77505,0.23193 0.96881,0.23193 1.7556,-0.00294c0.58129,-0.17321 0.83376,-0.38459 3.07964,-2.60698c1.7879,-1.77028 2.52184,-2.58056 2.73322,-3.01212c0.96588,-1.97872 -0.3934,-4.17469 -2.58643,-4.17469c-0.52844,0 -0.87193,0.07633 -1.30643,0.29358M1465.12294,674.81447c-1.54423,0.77211 -2.05505,2.78313 -1.06569,4.21286c0.17908,0.25835 1.37689,1.509 2.66276,2.77726c2.13432,2.1079 2.38973,2.32515 2.96808,2.49542c0.78973,0.23486 0.97762,0.23486 1.77322,0c0.87487,-0.26129 1.65579,-1.04221 1.91707,-1.91707c0.23486,-0.7956 0.23486,-0.98349 0,-1.77322c-0.17321,-0.58129 -0.38459,-0.83376 -2.60405,-3.07377c-2.72735,-2.75671 -3.11781,-3.02974 -4.31268,-3.02974c-0.54019,0 -0.87193,0.07633 -1.33872,0.30826M1448.94967,681.48459c-0.6723,0.21138 -1.28881,0.71046 -1.66459,1.34753l-0.31707,0.54019v3.82534v3.82534l0.35523,0.57835c1.18019,1.91707 3.8635,1.91707 5.04369,0l0.35523,-0.57835v-3.82534v-3.82534l-0.31707,-0.54019c-0.71633,-1.21835 -2.11964,-1.76441 -3.45543,-1.34753"/></g></svg>