<svg xmlns="http://www.w3.org/2000/svg" viewBox="0 0 24 24"><g transform="translate(-0.0000,2.6749) scale(0.264696) translate(-1404.51,-625.541)"><path d="M1425.38854,637.45173c-0.65175,0.2378 -1.23303,0.72808 -1.5912,1.33578c-0.27009,0.45798 -0.31707,0.6723 -0.31413,1.42092c0,0.62239 0.06459,1.0011 0.21725,1.29175c0.11743,0.22606 3.79011,3.99268 8.15856,8.367l7.94131,7.95599l-7.94131,7.95599c-4.36846,4.37433 -8.04113,8.14095 -8.15856,8.367c-0.15266,0.29064 -0.21725,0.66936 -0.21725,1.29175c-0.00294,0.75743 0.04404,0.96 0.32881,1.44441c0.38165,0.65175 1.08331,1.20074 1.77028,1.38863c0.59303,0.15853 1.55597,0.07046 2.08148,-0.19376c0.54312,-0.27009 18.472,-18.17842 18.87126,-18.84484c0.26716,-0.44624 0.31413,-0.66349 0.31413,-1.40918c0,-0.74569 -0.04697,-0.96294 -0.31413,-1.40918c-0.17908,-0.30239 -4.23341,-4.43892 -9.45325,-9.64407c-8.3259,-8.30242 -9.19196,-9.13031 -9.71747,-9.30646c-0.69285,-0.22899 -1.37689,-0.23193 -1.97579,-0.01174M1448.94826,678.54106c-0.6723,0.21138 -1.28881,0.71046 -1.66459,1.34753c-0.26716,0.45798 -0.31707,0.67523 -0.31707,1.42092c0,0.75156 0.04697,0.96294 0.32587,1.4356c0.36697,0.62532 0.93358,1.10092 1.58239,1.33285c0.65175,0.23193 24.7722,0.23193 25.42395,0c0.64881,-0.23193 1.21542,-0.70753 1.58239,-1.33285c0.2789,-0.47266 0.32587,-0.68404 0.32587,-1.4356c0,-0.74569 -0.04991,-0.96294 -0.31707,-1.42092c-0.38752,-0.65468 -0.99523,-1.13909 -1.70863,-1.3534c-0.76624,-0.23193 -24.49624,-0.22312 -25.23312,0.00587"/></g></svg>