<svg xmlns="http://www.w3.org/2000/svg" viewBox="0 0 24 24"><g transform="translate(-0.0000,2.6749) scale(0.264696) translate(-1404.51,-625.541)"><path d="M1442.44689,628.69222c-1.98753,0.42569 -3.72258,1.49432 -5.15525,3.17359c-0.79854,0.93652 -1.27413,1.76735 -1.69395,2.95634c-0.34349,0.97762 -0.36404,1.13322 -0.40807,3.22937l-0.04991,2.20184h-6.01544c-6.5292,0 -6.68186,0.01174 -7.51562,0.64881c-0.23486,0.17908 -0.57248,0.56954 -0.74569,0.86606c-0.26716,0.45798 -0.31707,0.67523 -0.31707,1.42092c0,0.75156 0.04697,0.96294 0.32587,1.4356c0.36697,0.62532 0.93358,1.10092 1.58239,1.33285c0.28771,0.10275 1.03633,0.15853 2.16955,0.16147l1.73212,0.00587l0.02936,19.81659l0.03229,19.81659l0.36697,1.02753c0.59597,1.66166 1.5178,2.98276 2.92992,4.18644c0.93065,0.79266 1.76147,1.2712 2.95634,1.69982l1.02753,0.36697h16.14685h16.14685l1.02753,-0.36697c1.19487,-0.42863 2.0257,-0.90716 2.95634,-1.69982c1.41212,-1.20367 2.33395,-2.52478 2.92992,-4.18644l0.36697,-1.02753l0.03229,-19.81659l0.02936,-19.81659l1.73212,-0.00587c1.13322,-0.00294 1.88184,-0.05872 2.16955,-0.16147c0.64881,-0.23193 1.21542,-0.70753 1.58239,-1.33285c0.2789,-0.47266 0.32587,-0.68404 0.32587,-1.4356c0,-0.74569 -0.04991,-0.96294 -0.31707,-1.42092c-0.17321,-0.29651 -0.51083,-0.68698 -0.74569,-0.86606c-0.83376,-0.63707 -0.98643,-0.64881 -7.51562,-0.64881h-6.01544l-0.04991,-2.20184c-0.04404,-2.09615 -0.06459,-2.25175 -0.40807,-3.22937c-1.09799,-3.11487 -3.75488,-5.48112 -6.88737,-6.127c-1.2389,-0.25541 -13.56629,-0.25835 -14.75822,-0.00294M1456.75593,634.65482c0.50789,0.2789 1.34753,1.11854 1.62056,1.62349c0.17321,0.32 0.22312,0.73101 0.25541,2.18423l0.0411,1.79083h-8.81618h-8.81912v-1.55597c0,-0.85725 0.05284,-1.73799 0.1145,-1.95817c0.24954,-0.86606 1.20955,-1.87597 2.09615,-2.19597c0.34349,-0.1233 1.74092,-0.14973 6.77287,-0.12917c5.89507,0.02349 6.36773,0.0411 6.7347,0.24073M1467.45983,665.29567c0,13.0261 -0.0411,19.31163 -0.1233,19.61402c-0.18495,0.66055 -1.01578,1.60881 -1.74386,1.99047l-0.62532,0.32587h-15.12226h-15.12226l-0.62532,-0.32587c-0.72808,-0.38165 -1.55891,-1.32991 -1.74386,-1.99047c-0.0822,-0.30239 -0.1233,-6.58792 -0.1233,-19.61402v-19.17072h17.61475h17.61475v19.17072"/></g></svg>