<svg xmlns="http://www.w3.org/2000/svg" viewBox="0 0 24 24"><g transform="translate(-0.0000,2.6749) scale(0.264696) translate(-1404.51,-625.541)"><path d="M1447.89207,631.62587c-0.41982,0.09101 -1.14202,0.34642 -1.60881,0.56367c-1.88771,0.89542 -3.07671,1.99634 -4.19231,3.87524c-1.40331,2.36625 -23.20743,40.59318 -23.60963,41.39172c-1.20661,2.39561 -1.21542,5.36075 -0.02642,7.71819c0.9189,1.82606 2.2723,3.18827 4.01323,4.04258c1.94056,0.95413 -0.57248,0.87487 27.36157,0.87487c28.05442,0 25.4034,0.09101 27.479,-0.93065c1.77322,-0.87487 3.00919,-2.11083 3.88405,-3.88405c0.73395,-1.49432 0.92771,-2.3134 0.92771,-3.93396c0,-1.57065 -0.18789,-2.40735 -0.86312,-3.81653c-0.47266,-0.9923 -23.18688,-40.81337 -23.99716,-42.07282c-1.20367,-1.86716 -3.09726,-3.21763 -5.31672,-3.78423c-1.09211,-0.2789 -2.88588,-0.29945 -4.05139,-0.04404M1451.13612,637.6002c0.32587,0.16147 0.70165,0.41395 0.8367,0.5578c0.38752,0.41395 24.06468,41.91722 24.20853,42.43099c0.28184,1.01872 0.01174,2.02863 -0.75156,2.79194c-0.98055,0.98055 1.33578,0.89835 -25.59129,0.89248c-19.71384,-0.00294 -24.04413,-0.03229 -24.40523,-0.16147c-0.60771,-0.21725 -1.21248,-0.70165 -1.5912,-1.2712c-0.28184,-0.42863 -0.31707,-0.59009 -0.31707,-1.48845v-1.00698l11.95454,-20.90283c6.57617,-11.49656 12.12188,-21.07311 12.32445,-21.28155c0.86312,-0.89835 2.20478,-1.12147 3.33212,-0.56074M1448.99299,649.21713c-0.6723,0.21138 -1.28881,0.71046 -1.66459,1.34753l-0.31707,0.54019v6.76113v6.76113l0.35523,0.57835c0.19963,0.32294 0.60184,0.74276 0.91303,0.95413c1.38276,0.92771 3.23524,0.50202 4.13066,-0.95413l0.35523,-0.57835v-6.76113v-6.76113l-0.31707,-0.54019c-0.71633,-1.21835 -2.11964,-1.76441 -3.45543,-1.34753M1448.99299,672.69758c-0.67817,0.22018 -1.29175,0.71927 -1.66459,1.3534c-0.26716,0.45798 -0.31707,0.67523 -0.31707,1.42092c0,0.7545 0.04697,0.96 0.33174,1.44441c1.52074,2.58937 5.47525,1.54423 5.47525,-1.44441c0,-1.10679 -0.60477,-2.11083 -1.57065,-2.60698c-0.58129,-0.29945 -1.62056,-0.37578 -2.25469,-0.16734"/></g></svg>