<svg xmlns="http://www.w3.org/2000/svg" viewBox="0 0 24 24"><g transform="translate(-0.0000,2.6749) scale(0.264696) translate(-1404.51,-625.541)"><path d="M1459.46768,633.03869c-3.34387,0.49028 -6.74938,2.22239 -8.90425,4.52405c-2.15781,2.30753 -3.48185,5.17286 -3.8635,8.36994l-0.18789,1.56771l-0.86312,-0.07633c-3.31744,-0.30239 -7.2837,-1.50313 -10.70977,-3.24698c-3.08552,-1.56771 -5.0114,-3.00038 -7.84443,-5.82755c-1.92588,-1.91707 -2.21359,-2.16368 -2.75377,-2.32221c-0.75743,-0.22606 -1.20074,-0.22606 -1.86423,0c-0.83376,0.28477 -1.31523,0.76918 -1.9112,1.92588c-2.67451,5.1758 -3.55524,11.07968 -2.53065,16.91896c1.03046,5.86277 3.84295,11.20298 8.06462,15.30428c1.74973,1.69982 3.22056,2.85359 4.96442,3.89286c0.9512,0.56367 0.90716,0.52257 0.70165,0.65175c-0.38459,0.24073 -2.71267,1.09211 -3.87231,1.41212c-1.95524,0.54019 -3.17653,0.7134 -5.75415,0.80147c-2.65983,0.09395 -2.96515,0.16734 -3.71378,0.9189c-0.79266,0.79266 -1.05688,1.88771 -0.70753,2.91524c0.30239,0.88367 0.68698,1.27413 2.16074,2.18716c4.90571,3.04735 10.02573,4.85873 15.58905,5.52222c1.68221,0.19963 6.44406,0.1967 8.04407,-0.00587c8.61068,-1.08624 16.2907,-4.80883 22.27678,-10.7949c6.33837,-6.33837 10.03747,-14.23859 10.84775,-23.15752c0.14385,-1.60001 0.07927,-5.68076 -0.1145,-7.03122l-0.09101,-0.6312l0.91597,-1.21542c0.50202,-0.66936 1.2389,-1.75854 1.6323,-2.42203c1.42973,-2.39854 2.99157,-5.94204 3.12662,-7.09287c0.1556,-1.32111 -0.7134,-2.65983 -1.96698,-3.02974c-1.1567,-0.34642 -1.58826,-0.24954 -3.25873,0.72808c-1.36221,0.7956 -3.42607,1.77909 -4.61506,2.19891l-0.90129,0.31707l-0.62532,-0.46679c-2.01982,-1.50313 -4.51818,-2.49542 -7.13397,-2.83304c-1.12147,-0.14679 -3.15598,-0.14679 -4.13653,-0.00294M1464.08568,639.07467c1.42679,0.3934 2.84478,1.18019 4.19818,2.33395c1.0011,0.85725 1.85248,1.04514 3.51414,0.77505c0.41101,-0.06752 0.77211,-0.09688 0.79854,-0.07046c0.02936,0.02936 -0.37285,0.54606 -0.89542,1.15083c-1.32111,1.52661 -1.40037,1.81432 -1.13909,4.09249c0.7545,6.59085 -0.0822,11.91344 -2.7479,17.46796c-1.70569,3.56111 -3.66974,6.31195 -6.35012,8.89838c-6.89911,6.66131 -16.003,9.89655 -25.11569,8.92774c-1.99047,-0.21138 -5.79525,-1.00991 -5.6191,-1.17725c0.02349,-0.02055 0.56954,-0.23486 1.21542,-0.47266c3.56992,-1.31817 7.98829,-4.16882 8.74572,-5.63965c0.4345,-0.84844 0.42275,-2.01395 -0.02936,-2.78313c-0.45505,-0.77505 -0.9189,-1.08331 -2.41909,-1.61175c-7.8004,-2.7479 -13.34904,-9.54132 -14.52042,-17.77621c-0.19963,-1.40331 -0.22606,-4.30681 -0.04991,-5.71892c0.12624,-1.02166 0.54312,-2.9857 0.69285,-3.26754c0.06459,-0.1145 0.27009,0.00587 0.78092,0.45211c4.40075,3.86644 10.90646,7.00773 16.89841,8.1615c2.9123,0.56074 7.45691,0.83964 8.56957,0.52844c1.11854,-0.31119 1.97872,-1.2712 2.12845,-2.36918c0.0411,-0.29358 0.00587,-0.92184 -0.07633,-1.40037c-0.2378,-1.35634 -0.19083,-3.16478 0.1145,-4.26864c0.88661,-3.23231 3.48772,-5.61323 6.93727,-6.35305c0.96294,-0.20551 3.429,-0.13798 4.36846,0.12037"/></g></svg>