<svg xmlns="http://www.w3.org/2000/svg" viewBox="0 0 24 24"><g transform="translate(-0.0000,2.6749) scale(0.264696) translate(-1404.51,-625.541)"><path d="M1424.88792,640.35565c-3.28809,0.5578 -5.98314,2.95047 -7.00186,6.21507l-0.27596,0.88074v13.32849v13.32849l0.27596,0.88074c0.90422,2.89763 3.109,5.1024 6.00663,6.00663l0.88074,0.27596h16.26428h16.26428l0.88074,-0.27596c2.8712,-0.89542 5.07892,-3.08552 5.99489,-5.94791c0.22312,-0.70165 0.27303,-1.18312 0.33468,-3.31744l0.07046,-2.49542l5.56626,3.71084c3.61396,2.41028 5.79525,3.79011 6.21507,3.93396c1.26826,0.43743 2.8712,0.17908 3.98974,-0.64c0.6312,-0.46385 1.04514,-1.00404 1.45615,-1.89652l0.27009,-0.58716v-13.09656v-13.09656l-0.38459,-0.78092c-0.48441,-0.98349 -1.40918,-1.85542 -2.3457,-2.21359c-0.90422,-0.34349 -2.31047,-0.35523 -3.1413,-0.02349c-0.32294,0.12624 -3.07084,1.68514 -6.10645,3.4613l-5.51929,3.22937l-0.07339,-1.94937c-0.06165,-1.53542 -0.13211,-2.12845 -0.33468,-2.77432c-0.89248,-2.82423 -3.10607,-5.03488 -5.9303,-5.92736l-0.94239,-0.29651l-15.91199,-0.01761c-8.75159,-0.00881 -16.17914,0.02936 -16.50208,0.08514M1456.62676,646.28008c0.81909,0.24367 1.60294,1.02753 1.84661,1.84661c0.1556,0.51964 0.17908,2.20478 0.17908,12.6562c0,13.08482 0.02055,12.67675 -0.64881,13.55455c-0.17908,0.23486 -0.56954,0.57248 -0.86606,0.74569l-0.54019,0.31707h-15.55969h-15.55969l-0.54019,-0.31707c-0.62532,-0.36697 -1.10092,-0.94532 -1.34459,-1.6323c-0.26129,-0.74569 -0.25541,-24.43752 0.00881,-25.32413c0.23193,-0.78973 1.03046,-1.60588 1.7967,-1.84074c0.85138,-0.26129 30.34727,-0.26716 31.22801,-0.00587M1476.2672,660.61848v9.34756l-0.32294,-0.20844c-0.17908,-0.11743 -2.8213,-1.87597 -5.87452,-3.91047l-5.55158,-3.6991l0.03229,-2.05799l0.03229,-2.05505l5.75415,-3.37322c3.16478,-1.85248 5.79232,-3.37616 5.84222,-3.38203c0.04991,-0.00587 0.08807,4.19525 0.08807,9.33875"/></g></svg>