<svg xmlns="http://www.w3.org/2000/svg" viewBox="0 0 24 24"><g transform="translate(-0.0000,2.6749) scale(0.264696) translate(-1404.51,-625.541)"><path d="M1457.49023,630.13546c-3.37616,0.46092 -6.09764,1.47083 -8.76334,3.25873c-4.11598,2.76258 -7.06645,6.80223 -8.37288,11.47307c-0.60477,2.15487 -0.72808,3.14717 -0.71927,5.81287c0.00587,2.5835 0.15266,3.67267 0.75156,5.59855l0.23193,0.74276l-9.84077,9.86426c-6.43819,6.45287 -9.9993,10.10499 -10.29288,10.56004c-1.06276,1.64111 -1.54129,3.46423 -1.42973,5.46351c0.03523,0.6811 0.15266,1.55597 0.25835,1.94349c0.81615,3.00625 3.44955,5.63965 6.4558,6.4558c0.38752,0.10569 1.26239,0.22312 1.94349,0.25835c1.99927,0.11156 3.8224,-0.36697 5.46351,-1.42973c0.45505,-0.29358 4.10717,-3.85469 10.56004,-10.29288l9.86426,-9.84077l0.74276,0.23193c1.93762,0.60184 3.01506,0.74863 5.59855,0.7545c2.68918,0.00587 3.78717,-0.13211 5.9303,-0.7545c3.43781,-0.99817 6.15048,-2.61579 8.75746,-5.21984c3.83121,-3.83414 5.81287,-8.40811 6.00663,-13.87161c0.10275,-2.91818 -0.31413,-5.36956 -1.37689,-8.08517c-0.56661,-1.45028 -1.05688,-2.09028 -1.87891,-2.45726c-0.6723,-0.30239 -1.77615,-0.30826 -2.41616,-0.01761c-0.30826,0.14092 -2.36331,2.1079 -6.18571,5.91562l-5.72773,5.70424l-2.31634,-2.31634l-2.31634,-2.31634l5.77177,-5.78644c5.54571,-5.55745 5.77764,-5.80699 5.95672,-6.42057c0.24367,-0.83376 0.2378,-1.16257 -0.04697,-1.91707c-0.42569,-1.14202 -1.34166,-1.7556 -3.7813,-2.53652c-2.81249,-0.89835 -5.91268,-1.17138 -8.82792,-0.77505M1461.46823,635.89842c0.14679,0.05872 -0.78973,1.06569 -3.90167,4.19818c-3.82534,3.85176 -4.12185,4.18057 -4.46827,4.94974c-0.77505,1.71744 -0.76037,3.43194 0.04991,5.12883c0.37285,0.78386 0.66936,1.11854 3.42313,3.8635c2.75084,2.74203 3.09726,3.04735 3.89873,3.43488c1.7145,0.83376 3.44955,0.83376 5.18754,0c0.79266,-0.38165 1.16257,-0.7134 4.93506,-4.47415c3.25286,-3.24111 4.09543,-4.0191 4.15708,-3.85469c0.14385,0.36991 -0.05578,3.38203 -0.29064,4.47121c-0.6312,2.89175 -1.84368,5.08773 -3.99268,7.23672c-2.86533,2.86533 -6.38241,4.33029 -10.39857,4.33029c-1.95524,0 -3.48185,-0.31119 -5.64553,-1.14496c-0.90716,-0.35229 -1.1567,-0.39927 -1.76735,-0.35229c-0.39046,0.03229 -0.89248,0.14973 -1.1156,0.26129c-0.22312,0.11156 -5.18754,4.97323 -11.0327,10.80371c-9.7116,9.68811 -10.67747,10.61876 -11.20591,10.79197c-1.61469,0.53138 -3.29983,-0.14973 -4.0602,-1.64404c-0.37872,-0.73688 -0.41101,-2.07854 -0.06752,-2.80368c0.14973,-0.32 3.59341,-3.84882 10.76555,-11.03857c8.15856,-8.17618 10.60114,-10.68922 10.78316,-11.09729c0.38165,-0.84551 0.32,-1.54129 -0.27303,-3.13249c-0.76918,-2.06973 -0.94532,-3.04442 -0.94532,-5.26387c-0.00294,-1.38276 0.05578,-2.15781 0.21725,-2.93579c0.59303,-2.85065 1.81138,-5.1758 3.7813,-7.22205c2.41322,-2.50129 4.92039,-3.81946 8.38462,-4.40662c0.93945,-0.15853 3.25579,-0.22312 3.58167,-0.09982"/></g></svg>