<svg xmlns="http://www.w3.org/2000/svg" viewBox="0 0 24 24"><g transform="translate(-0.0000,2.6749) scale(0.264696) translate(-1404.51,-625.541)"><path d="M1431.24266,640.40272c-0.65175,0.2378 -1.23303,0.72808 -1.5912,1.33578c-0.27009,0.45798 -0.31707,0.6723 -0.31413,1.42092c0,0.62239 0.06459,1.0011 0.21725,1.29175c0.11743,0.22606 3.79011,3.99268 8.15856,8.367l7.94131,7.95599l-7.94131,7.95599c-4.36846,4.37433 -8.04113,8.14095 -8.15856,8.367c-0.15266,0.29064 -0.21725,0.66936 -0.21725,1.29175c-0.00294,0.75743 0.04404,0.96 0.32881,1.44441c0.38165,0.65175 1.08331,1.20074 1.77028,1.38863c0.59303,0.15853 1.55597,0.07046 2.08148,-0.19376c0.21725,-0.10862 3.978,-3.77249 8.35233,-8.14095l7.95599,-7.94131l7.95599,7.94131c4.37433,4.36846 8.14095,8.04113 8.367,8.15856c0.29064,0.15266 0.66936,0.21725 1.29175,0.21725c0.75743,0.00294 0.96,-0.04404 1.44441,-0.32881c0.65175,-0.38165 1.20074,-1.08331 1.38863,-1.77028c0.15853,-0.59303 0.07046,-1.55597 -0.19376,-2.08148c-0.10862,-0.21725 -3.77249,-3.978 -8.14095,-8.35233l-7.94131,-7.95599l7.94131,-7.95599c4.36846,-4.37433 8.04113,-8.14095 8.15856,-8.367c0.15266,-0.29064 0.21725,-0.66936 0.21725,-1.29175c0.00294,-0.74863 -0.04404,-0.96294 -0.31413,-1.42092c-0.74569,-1.26826 -2.15487,-1.79083 -3.56699,-1.32404c-0.52551,0.17615 -1.3123,0.92477 -8.59306,8.18792l-8.01471,7.99709l-8.01471,-7.99709c-7.28076,-7.26315 -8.06755,-8.01177 -8.59306,-8.18792c-0.69285,-0.22899 -1.37689,-0.23193 -1.97579,-0.01174"/></g></svg>